<svg width="210" height="38" viewBox="0 0 210 38" fill="none" xmlns="http://www.w3.org/2000/svg">
<g clip-path="url(#clip0_4_114)">
<path d="M30.3798 29.6465C28.9524 26.1976 25.522 23.7678 21.5237 23.7678H16.7407C12.7423 23.7678 9.31199 26.1976 7.88455 29.6465C5.22398 26.8844 3.58728 23.1549 3.58728 19.0413C3.58728 10.5557 10.5451 3.68004 19.1322 3.68004C27.7192 3.68004 34.6771 10.5557 34.6771 19.0413C34.6771 23.1549 33.0404 26.8844 30.3798 29.6465ZM27.3829 32.0614C24.9914 33.5459 22.1664 34.4025 19.1322 34.4025C16.0979 34.4025 13.273 33.5459 10.874 32.0614C11.4195 29.3511 13.8409 27.3127 16.7407 27.3127H21.5237C24.4234 27.3127 26.8448 29.3511 27.3904 32.0614H27.3829ZM19.1322 37.9474C24.2064 37.9474 29.0727 35.9556 32.6607 32.41C36.2487 28.8644 38.2644 24.0555 38.2644 19.0413C38.2644 14.0271 36.2487 9.21821 32.6607 5.67262C29.0727 2.12703 24.2064 0.135132 19.1322 0.135132C14.058 0.135132 9.19167 2.12703 5.60369 5.67262C2.01571 9.21821 0 14.0271 0 19.0413C0 24.0555 2.01571 28.8644 5.60369 32.41C9.19167 35.9556 14.058 37.9474 19.1322 37.9474ZM19.1322 17.8597C18.3393 17.8597 17.579 17.5484 17.0184 16.9944C16.4577 16.4404 16.1428 15.689 16.1428 14.9056C16.1428 14.1221 16.4577 13.3707 17.0184 12.8167C17.579 12.2627 18.3393 11.9515 19.1322 11.9515C19.925 11.9515 20.6854 12.2627 21.246 12.8167C21.8066 13.3707 22.1216 14.1221 22.1216 14.9056C22.1216 15.689 21.8066 16.4404 21.246 16.9944C20.6854 17.5484 19.925 17.8597 19.1322 17.8597ZM12.5555 14.9056C12.5555 16.6292 13.2484 18.2823 14.4818 19.501C15.7151 20.7198 17.3879 21.4046 19.1322 21.4046C20.8764 21.4046 22.5492 20.7198 23.7826 19.501C25.016 18.2823 25.7089 16.6292 25.7089 14.9056C25.7089 13.1819 25.016 11.5289 23.7826 10.3101C22.5492 9.09129 20.8764 8.40658 19.1322 8.40658C17.3879 8.40658 15.7151 9.09129 14.4818 10.3101C13.2484 11.5289 12.5555 13.1819 12.5555 14.9056Z" fill="black"/>
</g>
<path d="M49.3076 12.9018C50.7743 12.9018 52.0609 13.1884 53.1676 13.7618C54.2876 14.3351 55.1476 15.1551 55.7476 16.2218C56.3609 17.2751 56.6676 18.5018 56.6676 19.9018C56.6676 21.3018 56.3609 22.5284 55.7476 23.5818C55.1476 24.6218 54.2876 25.4284 53.1676 26.0018C52.0609 26.5751 50.7743 26.8618 49.3076 26.8618H44.4276V12.9018H49.3076ZM49.2076 24.4818C50.6743 24.4818 51.8076 24.0818 52.6076 23.2818C53.4076 22.4818 53.8076 21.3551 53.8076 19.9018C53.8076 18.4484 53.4076 17.3151 52.6076 16.5018C51.8076 15.6751 50.6743 15.2618 49.2076 15.2618H47.2276V24.4818H49.2076ZM58.0435 21.2818C58.0435 20.1618 58.2635 19.1684 58.7035 18.3018C59.1569 17.4351 59.7635 16.7684 60.5235 16.3018C61.2969 15.8351 62.1569 15.6018 63.1035 15.6018C63.9302 15.6018 64.6502 15.7684 65.2635 16.1018C65.8902 16.4351 66.3902 16.8551 66.7635 17.3618V15.7818H69.5835V26.8618H66.7635V25.2418C66.4035 25.7618 65.9035 26.1951 65.2635 26.5418C64.6369 26.8751 63.9102 27.0418 63.0835 27.0418C62.1502 27.0418 61.2969 26.8018 60.5235 26.3218C59.7635 25.8418 59.1569 25.1684 58.7035 24.3018C58.2635 23.4218 58.0435 22.4151 58.0435 21.2818ZM66.7635 21.3218C66.7635 20.6418 66.6302 20.0618 66.3635 19.5818C66.0969 19.0884 65.7369 18.7151 65.2835 18.4618C64.8302 18.1951 64.3435 18.0618 63.8235 18.0618C63.3035 18.0618 62.8235 18.1884 62.3835 18.4418C61.9435 18.6951 61.5835 19.0684 61.3035 19.5618C61.0369 20.0418 60.9035 20.6151 60.9035 21.2818C60.9035 21.9484 61.0369 22.5351 61.3035 23.0418C61.5835 23.5351 61.9435 23.9151 62.3835 24.1818C62.8369 24.4484 63.3169 24.5818 63.8235 24.5818C64.3435 24.5818 64.8302 24.4551 65.2835 24.2018C65.7369 23.9351 66.0969 23.5618 66.3635 23.0818C66.6302 22.5884 66.7635 22.0018 66.7635 21.3218ZM78.4582 15.6218C79.7782 15.6218 80.8449 16.0418 81.6582 16.8818C82.4716 17.7084 82.8782 18.8684 82.8782 20.3618V26.8618H80.0782V20.7418C80.0782 19.8618 79.8582 19.1884 79.4182 18.7218C78.9782 18.2418 78.3782 18.0018 77.6182 18.0018C76.8449 18.0018 76.2316 18.2418 75.7782 18.7218C75.3382 19.1884 75.1182 19.8618 75.1182 20.7418V26.8618H72.3182V15.7818H75.1182V17.1618C75.4916 16.6818 75.9649 16.3084 76.5382 16.0418C77.1249 15.7618 77.7649 15.6218 78.4582 15.6218ZM86.9609 14.4618C86.4676 14.4618 86.0542 14.3084 85.7209 14.0018C85.4009 13.6818 85.2409 13.2884 85.2409 12.8218C85.2409 12.3551 85.4009 11.9684 85.7209 11.6618C86.0542 11.3418 86.4676 11.1818 86.9609 11.1818C87.4542 11.1818 87.8609 11.3418 88.1809 11.6618C88.5142 11.9684 88.6809 12.3551 88.6809 12.8218C88.6809 13.2884 88.5142 13.6818 88.1809 14.0018C87.8609 14.3084 87.4542 14.4618 86.9609 14.4618ZM88.3409 15.7818V26.8618H85.5409V15.7818H88.3409ZM101.407 21.0818C101.407 21.4818 101.381 21.8418 101.327 22.1618H93.2273C93.294 22.9618 93.574 23.5884 94.0673 24.0418C94.5606 24.4951 95.1673 24.7218 95.8873 24.7218C96.9273 24.7218 97.6673 24.2751 98.1073 23.3818H101.127C100.807 24.4484 100.194 25.3284 99.2873 26.0218C98.3806 26.7018 97.2673 27.0418 95.9473 27.0418C94.8806 27.0418 93.9206 26.8084 93.0673 26.3418C92.2273 25.8618 91.5673 25.1884 91.0873 24.3218C90.6206 23.4551 90.3873 22.4551 90.3873 21.3218C90.3873 20.1751 90.6206 19.1684 91.0873 18.3018C91.554 17.4351 92.2073 16.7684 93.0473 16.3018C93.8873 15.8351 94.854 15.6018 95.9473 15.6018C97.0006 15.6018 97.9406 15.8284 98.7673 16.2818C99.6073 16.7351 100.254 17.3818 100.707 18.2218C101.174 19.0484 101.407 20.0018 101.407 21.0818ZM98.5073 20.2818C98.494 19.5618 98.234 18.9884 97.7273 18.5618C97.2206 18.1218 96.6006 17.9018 95.8673 17.9018C95.174 17.9018 94.5873 18.1151 94.1073 18.5418C93.6406 18.9551 93.354 19.5351 93.2473 20.2818H98.5073ZM106.251 12.0618V26.8618H103.451V12.0618H106.251Z" fill="#333333"/>
<path d="M122.343 24.2018H116.783L115.863 26.8618H112.923L117.943 12.8818H121.203L126.223 26.8618H123.263L122.343 24.2018ZM121.583 21.9618L119.563 16.1218L117.543 21.9618H121.583ZM130.899 17.5018C131.259 16.9151 131.726 16.4551 132.299 16.1218C132.886 15.7884 133.553 15.6218 134.299 15.6218V18.5618H133.559C132.679 18.5618 132.013 18.7684 131.559 19.1818C131.119 19.5951 130.899 20.3151 130.899 21.3418V26.8618H128.099V15.7818H130.899V17.5018ZM138.985 17.4018C139.345 16.8684 139.839 16.4351 140.465 16.1018C141.105 15.7684 141.832 15.6018 142.645 15.6018C143.592 15.6018 144.445 15.8351 145.205 16.3018C145.979 16.7684 146.585 17.4351 147.025 18.3018C147.479 19.1551 147.705 20.1484 147.705 21.2818C147.705 22.4151 147.479 23.4218 147.025 24.3018C146.585 25.1684 145.979 25.8418 145.205 26.3218C144.445 26.8018 143.592 27.0418 142.645 27.0418C141.819 27.0418 141.092 26.8818 140.465 26.5618C139.852 26.2284 139.359 25.8018 138.985 25.2818V26.8618H136.185V12.0618H138.985V17.4018ZM144.845 21.2818C144.845 20.6151 144.705 20.0418 144.425 19.5618C144.159 19.0684 143.799 18.6951 143.345 18.4418C142.905 18.1884 142.425 18.0618 141.905 18.0618C141.399 18.0618 140.919 18.1951 140.465 18.4618C140.025 18.7151 139.665 19.0884 139.385 19.5818C139.119 20.0751 138.985 20.6551 138.985 21.3218C138.985 21.9884 139.119 22.5684 139.385 23.0618C139.665 23.5551 140.025 23.9351 140.465 24.2018C140.919 24.4551 141.399 24.5818 141.905 24.5818C142.425 24.5818 142.905 24.4484 143.345 24.1818C143.799 23.9151 144.159 23.5351 144.425 23.0418C144.705 22.5484 144.845 21.9618 144.845 21.2818ZM154.66 27.0418C153.593 27.0418 152.633 26.8084 151.78 26.3418C150.927 25.8618 150.253 25.1884 149.76 24.3218C149.28 23.4551 149.04 22.4551 149.04 21.3218C149.04 20.1884 149.287 19.1884 149.78 18.3218C150.287 17.4551 150.973 16.7884 151.84 16.3218C152.707 15.8418 153.673 15.6018 154.74 15.6018C155.807 15.6018 156.773 15.8418 157.64 16.3218C158.507 16.7884 159.187 17.4551 159.68 18.3218C160.187 19.1884 160.44 20.1884 160.44 21.3218C160.44 22.4551 160.18 23.4551 159.66 24.3218C159.153 25.1884 158.46 25.8618 157.58 26.3418C156.713 26.8084 155.74 27.0418 154.66 27.0418ZM154.66 24.6018C155.167 24.6018 155.64 24.4818 156.08 24.2418C156.533 23.9884 156.893 23.6151 157.16 23.1218C157.427 22.6284 157.56 22.0284 157.56 21.3218C157.56 20.2684 157.28 19.4618 156.72 18.9018C156.173 18.3284 155.5 18.0418 154.7 18.0418C153.9 18.0418 153.227 18.3284 152.68 18.9018C152.147 19.4618 151.88 20.2684 151.88 21.3218C151.88 22.3751 152.14 23.1884 152.66 23.7618C153.193 24.3218 153.86 24.6018 154.66 24.6018ZM165.294 12.0618V26.8618H162.494V12.0618H165.294ZM178.36 21.0818C178.36 21.4818 178.334 21.8418 178.28 22.1618H170.18C170.247 22.9618 170.527 23.5884 171.02 24.0418C171.514 24.4951 172.12 24.7218 172.84 24.7218C173.88 24.7218 174.62 24.2751 175.06 23.3818H178.08C177.76 24.4484 177.147 25.3284 176.24 26.0218C175.334 26.7018 174.22 27.0418 172.9 27.0418C171.834 27.0418 170.874 26.8084 170.02 26.3418C169.18 25.8618 168.52 25.1884 168.04 24.3218C167.574 23.4551 167.34 22.4551 167.34 21.3218C167.34 20.1751 167.574 19.1684 168.04 18.3018C168.507 17.4351 169.16 16.7684 170 16.3018C170.84 15.8351 171.807 15.6018 172.9 15.6018C173.954 15.6018 174.894 15.8284 175.72 16.2818C176.56 16.7351 177.207 17.3818 177.66 18.2218C178.127 19.0484 178.36 20.0018 178.36 21.0818ZM175.46 20.2818C175.447 19.5618 175.187 18.9884 174.68 18.5618C174.174 18.1218 173.554 17.9018 172.82 17.9018C172.127 17.9018 171.54 18.1151 171.06 18.5418C170.594 18.9551 170.307 19.5351 170.2 20.2818H175.46ZM179.684 21.2818C179.684 20.1618 179.904 19.1684 180.344 18.3018C180.798 17.4351 181.411 16.7684 182.184 16.3018C182.958 15.8351 183.818 15.6018 184.764 15.6018C185.484 15.6018 186.171 15.7618 186.824 16.0818C187.478 16.3884 187.998 16.8018 188.384 17.3218V12.0618H191.224V26.8618H188.384V25.2218C188.038 25.7684 187.551 26.2084 186.924 26.5418C186.298 26.8751 185.571 27.0418 184.744 27.0418C183.811 27.0418 182.958 26.8018 182.184 26.3218C181.411 25.8418 180.798 25.1684 180.344 24.3018C179.904 23.4218 179.684 22.4151 179.684 21.2818ZM188.404 21.3218C188.404 20.6418 188.271 20.0618 188.004 19.5818C187.738 19.0884 187.378 18.7151 186.924 18.4618C186.471 18.1951 185.984 18.0618 185.464 18.0618C184.944 18.0618 184.464 18.1884 184.024 18.4418C183.584 18.6951 183.224 19.0684 182.944 19.5618C182.678 20.0418 182.544 20.6151 182.544 21.2818C182.544 21.9484 182.678 22.5351 182.944 23.0418C183.224 23.5351 183.584 23.9151 184.024 24.1818C184.478 24.4484 184.958 24.5818 185.464 24.5818C185.984 24.5818 186.471 24.4551 186.924 24.2018C187.378 23.9351 187.738 23.5618 188.004 23.0818C188.271 22.5884 188.404 22.0018 188.404 21.3218ZM193.239 21.2818C193.239 20.1618 193.459 19.1684 193.899 18.3018C194.352 17.4351 194.959 16.7684 195.719 16.3018C196.492 15.8351 197.352 15.6018 198.299 15.6018C199.126 15.6018 199.846 15.7684 200.459 16.1018C201.086 16.4351 201.586 16.8551 201.959 17.3618V15.7818H204.779V26.8618H201.959V25.2418C201.599 25.7618 201.099 26.1951 200.459 26.5418C199.832 26.8751 199.106 27.0418 198.279 27.0418C197.346 27.0418 196.492 26.8018 195.719 26.3218C194.959 25.8418 194.352 25.1684 193.899 24.3018C193.459 23.4218 193.239 22.4151 193.239 21.2818ZM201.959 21.3218C201.959 20.6418 201.826 20.0618 201.559 19.5818C201.292 19.0884 200.932 18.7151 200.479 18.4618C200.026 18.1951 199.539 18.0618 199.019 18.0618C198.499 18.0618 198.019 18.1884 197.579 18.4418C197.139 18.6951 196.779 19.0684 196.499 19.5618C196.232 20.0418 196.099 20.6151 196.099 21.2818C196.099 21.9484 196.232 22.5351 196.499 23.0418C196.779 23.5351 197.139 23.9151 197.579 24.1818C198.032 24.4484 198.512 24.5818 199.019 24.5818C199.539 24.5818 200.026 24.4551 200.479 24.2018C200.932 23.9351 201.292 23.5618 201.559 23.0818C201.826 22.5884 201.959 22.0018 201.959 21.3218Z" fill="#834562"/>
<defs>
<clipPath id="clip0_4_114">
<rect width="38.2644" height="37.8123" fill="white" transform="translate(0 0.135132)"/>
</clipPath>
</defs>
</svg>
