<svg width="33" height="33" viewBox="0 0 33 33" fill="none" xmlns="http://www.w3.org/2000/svg">
<circle cx="16.5" cy="16.5" r="16.5" fill="#F174E4"/>
<path d="M16.9975 7.39999C16.5834 7.40012 16.1698 7.42882 15.7596 7.48588C14.9813 7.59386 14.2196 7.79882 13.4922 8.09599C11.9771 8.71865 10.6564 9.73579 9.66739 11.0417C9.16548 11.6974 8.75538 12.4186 8.44844 13.1852C7.85869 14.6644 7.66181 16.271 7.87696 17.8488C8.09212 19.4266 8.71197 20.9218 9.67623 22.189C10.178 22.8491 10.7674 23.4377 11.4282 23.9385C11.7035 24.1328 12.0434 24.2127 12.3764 24.1614C12.7094 24.1101 13.0095 23.9317 13.2136 23.6636C13.4177 23.3955 13.5098 23.0587 13.4706 22.7241C13.4314 22.3895 13.2639 22.0831 13.0034 21.8695C12.5306 21.5118 12.1086 21.0916 11.7491 20.6202C11.4008 20.1617 11.113 19.6603 10.8927 19.1284C10.6769 18.6055 10.5291 18.057 10.4531 17.4964C10.2972 16.3625 10.4391 15.2076 10.8649 14.1452C11.0845 13.5977 11.3777 13.0826 11.7364 12.6143C12.0953 12.1402 12.5168 11.717 12.9895 11.3562C13.4464 11.008 13.9466 10.7205 14.4775 10.501C15.0029 10.2857 15.5534 10.1371 16.1158 10.0589C16.6738 9.98166 17.2395 9.97826 17.7983 10.0488C18.3702 10.1223 18.9304 10.2679 19.4657 10.4821C20.5693 10.9288 21.5335 11.6623 22.2585 12.6067C22.9525 13.5143 23.3967 14.5878 23.547 15.7204C23.6237 16.2801 23.628 16.8473 23.5596 17.408C23.4872 17.9792 23.3416 18.5388 23.1263 19.0728C22.905 19.6248 22.6097 20.144 22.2484 20.6164C21.8917 21.0877 21.4723 21.508 21.0017 21.8657C20.8579 21.9656 20.7357 22.0936 20.6425 22.2419C20.5493 22.3902 20.487 22.5558 20.4593 22.7288C20.4317 22.9017 20.4392 23.0785 20.4815 23.2485C20.5239 23.4184 20.6001 23.5781 20.7056 23.7179C20.8111 23.8577 20.9438 23.9748 21.0956 24.0621C21.2475 24.1494 21.4154 24.2051 21.5893 24.226C21.7632 24.2468 21.9395 24.2323 22.1077 24.1833C22.2759 24.1344 22.4325 24.052 22.568 23.941C23.2279 23.44 23.8161 22.8509 24.3162 22.1903C24.8203 21.5308 25.2325 20.8058 25.5415 20.0354C25.8382 19.2947 26.0389 18.5191 26.139 17.7276C26.3838 15.7127 25.9567 13.6733 24.9239 11.926C23.891 10.1787 22.3103 8.8213 20.427 8.06441C19.6867 7.76963 18.9121 7.56973 18.1217 7.46946C17.7488 7.42268 17.3733 7.40032 16.9975 7.39999ZM17 16.8573C16.6552 16.8573 16.3244 16.9942 16.0805 17.2379C15.8365 17.4816 15.6993 17.8122 15.699 18.157V25.8143C15.699 26.1594 15.836 26.4903 16.08 26.7343C16.324 26.9783 16.655 27.1154 17 27.1154C17.3451 27.1154 17.676 26.9783 17.92 26.7343C18.164 26.4903 18.3011 26.1594 18.3011 25.8143V18.157C18.3011 17.812 18.164 17.4811 17.92 17.2371C17.676 16.9931 17.3451 16.856 17 16.856V16.8573Z" fill="black"/>
</svg>
