<svg width="33" height="33" viewBox="0 0 33 33" fill="none" xmlns="http://www.w3.org/2000/svg">
<circle cx="16.5" cy="16.5" r="16.5" fill="#601865"/>
<path d="M16.9675 6.41501C16.5544 6.41514 16.1419 6.44402 15.7327 6.50144C14.9564 6.6101 14.1966 6.81634 13.471 7.11536C11.9597 7.74191 10.6422 8.76541 9.65574 10.0795C9.15509 10.7393 8.74602 11.465 8.43984 12.2364C7.85156 13.7248 7.65518 15.3415 7.86979 16.9291C8.08441 18.5168 8.70271 20.0213 9.66456 21.2965C10.1651 21.9607 10.753 22.553 11.4122 23.0569C11.6868 23.2524 12.0258 23.3328 12.358 23.2812C12.6901 23.2296 12.9895 23.05 13.1931 22.7803C13.3966 22.5105 13.4885 22.1716 13.4494 21.8349C13.4103 21.4982 13.2433 21.1899 12.9834 20.9749C12.5118 20.6151 12.0909 20.1922 11.7322 19.7178C11.3848 19.2565 11.0977 18.752 10.8779 18.2167C10.6627 17.6905 10.5153 17.1386 10.4395 16.5745C10.2839 15.4336 10.4255 14.2715 10.8502 13.2024C11.0693 12.6515 11.3618 12.1332 11.7196 11.6619C12.0776 11.1849 12.4981 10.759 12.9695 10.3959C13.4253 10.0456 13.9242 9.7563 14.4538 9.53544C14.978 9.31873 15.527 9.16928 16.088 9.09058C16.6446 9.01282 17.2089 9.0094 17.7664 9.08041C18.3368 9.15432 18.8956 9.30081 19.4296 9.51638C20.5304 9.96587 21.4922 10.704 22.2154 11.6543C22.9076 12.5676 23.3507 13.6478 23.5006 14.7874C23.5772 15.3506 23.5814 15.9213 23.5132 16.4856C23.441 17.0604 23.2957 17.6234 23.081 18.1608C22.8603 18.7162 22.5657 19.2387 22.2053 19.714C21.8495 20.1883 21.4311 20.6112 20.9617 20.9711C20.8182 21.0717 20.6964 21.2004 20.6034 21.3497C20.5104 21.4989 20.4483 21.6655 20.4207 21.8396C20.3931 22.0136 20.4007 22.1915 20.4429 22.3625C20.4851 22.5336 20.5611 22.6942 20.6663 22.8349C20.7716 22.9756 20.9039 23.0934 21.0554 23.1813C21.2069 23.2691 21.3744 23.3252 21.5478 23.3462C21.7213 23.3671 21.8972 23.3525 22.065 23.3033C22.2327 23.254 22.3889 23.1711 22.5241 23.0594C23.1824 22.5553 23.7691 21.9625 24.268 21.2978C24.7708 20.6341 25.1819 19.9046 25.4902 19.1294C25.7861 18.3841 25.9864 17.6037 26.0861 16.8071C26.3304 14.7797 25.9044 12.7275 24.8741 10.9693C23.8438 9.21113 22.267 7.84521 20.3884 7.08359C19.65 6.78697 18.8774 6.58582 18.0889 6.48492C17.7169 6.43785 17.3424 6.41535 16.9675 6.41501ZM16.97 15.9314C16.6261 15.9314 16.2962 16.0691 16.0528 16.3144C15.8095 16.5596 15.6726 16.8923 15.6722 17.2393V24.9444C15.6722 25.2916 15.809 25.6246 16.0524 25.8701C16.2957 26.1157 16.6258 26.2536 16.97 26.2536C17.3142 26.2536 17.6443 26.1157 17.8877 25.8701C18.1311 25.6246 18.2678 25.2916 18.2678 24.9444V17.2393C18.2678 16.8921 18.1311 16.5591 17.8877 16.3136C17.6443 16.068 17.3142 15.9301 16.97 15.9301V15.9314Z" fill="white"/>
</svg>
