<svg width="30" height="50" viewBox="0 0 30 50" fill="none" xmlns="http://www.w3.org/2000/svg">
<path d="M30 25C30 11.1929 18.8071 0 5 0H0V50H5C18.8071 50 30 38.8071 30 25V25Z" fill="#F174E4"/>
<path fill-rule="evenodd" clip-rule="evenodd" d="M21.9779 15.844C21.9779 13.9141 20.3478 13.6084 19.3799 14.4215C18.4121 15.2348 10.4185 22.7043 9.57056 23.7014C8.72257 24.6987 8.55446 25.4815 9.55447 26.4609C10.5547 27.4403 18.0194 34.8238 19.2806 35.6046C20.5419 36.3856 22 36.0615 22 34.1667C22 32.2719 21.9779 17.774 21.9779 15.844ZM12.392 25.6125C12.1414 25.3733 12.1383 24.985 12.3864 24.7433L18.5435 18.7486C18.7909 18.5078 18.9916 18.5574 18.9916 18.8564L18.9923 31.3753C18.9923 31.6756 18.7889 31.7247 18.539 31.4861L12.392 25.6125ZM4.00262 14.8825C3.97083 14.5372 4.23075 14.2305 4.64773 14.2305H6.17972C6.86316 14.2305 6.83791 14.3233 6.83791 14.7556C6.83791 15.1877 6.76424 34.7754 6.7519 35.1466C6.73993 35.5179 6.5537 35.7526 6.14999 35.7526C5.74628 35.7526 4.98094 35.7526 4.59238 35.7518C4.20363 35.7508 4.01496 35.4937 4.01496 35.203C4.01496 34.9124 4.03441 15.228 4.00262 14.8825Z" fill="black"/>
</svg>
