<svg width="212" height="25" viewBox="0 0 212 25" fill="none" xmlns="http://www.w3.org/2000/svg">
<rect y="1" width="165.87" height="24" rx="10" fill="#D9D9D9"/>
<path d="M41.6172 19H39.7706L45.1116 4.45455H46.9297L52.2706 19H50.424L46.0775 6.75568H45.9638L41.6172 19ZM42.2991 13.3182H49.7422V14.8807H42.2991V13.3182ZM58.3697 8.09091V9.51136H52.7163V8.09091H58.3697ZM54.364 5.47727H56.0402V15.875C56.0402 16.3485 56.1088 16.7036 56.2461 16.9403C56.3882 17.1723 56.5681 17.3286 56.7859 17.4091C57.0084 17.4848 57.2428 17.5227 57.489 17.5227C57.6737 17.5227 57.8252 17.5133 57.9436 17.4943C58.062 17.4706 58.1566 17.4517 58.2277 17.4375L58.5686 18.9432C58.4549 18.9858 58.2963 19.0284 58.0927 19.071C57.8891 19.1184 57.6311 19.142 57.3186 19.142C56.8451 19.142 56.3811 19.0402 55.9265 18.8366C55.4767 18.633 55.1027 18.3229 54.8044 17.9062C54.5108 17.4896 54.364 16.964 54.364 16.3295V5.47727ZM65.6353 8.09091V9.51136H59.9819V8.09091H65.6353ZM61.6297 5.47727H63.3058V15.875C63.3058 16.3485 63.3745 16.7036 63.5118 16.9403C63.6538 17.1723 63.8337 17.3286 64.0515 17.4091C64.2741 17.4848 64.5084 17.5227 64.7547 17.5227C64.9393 17.5227 65.0908 17.5133 65.2092 17.4943C65.3276 17.4706 65.4223 17.4517 65.4933 17.4375L65.8342 18.9432C65.7206 18.9858 65.562 19.0284 65.3584 19.071C65.1548 19.1184 64.8967 19.142 64.5842 19.142C64.1107 19.142 63.6467 19.0402 63.1922 18.8366C62.7424 18.633 62.3683 18.3229 62.07 17.9062C61.7764 17.4896 61.6297 16.964 61.6297 16.3295V5.47727ZM68.1566 19V8.09091H69.776V9.73864H69.8896C70.0885 9.19886 70.4483 8.76089 70.9691 8.42472C71.49 8.08854 72.0771 7.92045 72.7305 7.92045C72.8536 7.92045 73.0075 7.92282 73.1922 7.92756C73.3768 7.93229 73.5165 7.93939 73.6112 7.94886V9.65341C73.5544 9.6392 73.4242 9.6179 73.2206 9.58949C73.0217 9.55634 72.811 9.53977 72.5885 9.53977C72.0582 9.53977 71.5847 9.65104 71.168 9.87358C70.7561 10.0914 70.4294 10.3944 70.1879 10.7827C69.9512 11.1662 69.8328 11.6042 69.8328 12.0966V19H68.1566ZM75.5981 19V8.09091H77.2742V19H75.5981ZM76.4503 6.27273C76.1236 6.27273 75.8419 6.16146 75.6052 5.93892C75.3732 5.71638 75.2571 5.44886 75.2571 5.13636C75.2571 4.82386 75.3732 4.55634 75.6052 4.33381C75.8419 4.11127 76.1236 4 76.4503 4C76.777 4 77.0564 4.11127 77.2884 4.33381C77.5251 4.55634 77.6435 4.82386 77.6435 5.13636C77.6435 5.44886 77.5251 5.71638 77.2884 5.93892C77.0564 6.16146 76.777 6.27273 76.4503 6.27273ZM80.5714 19V4.45455H82.2476V9.82386H82.3896C82.5127 9.63447 82.6832 9.39299 82.901 9.09943C83.1235 8.80114 83.4407 8.53598 83.8527 8.30398C84.2693 8.06723 84.8328 7.94886 85.543 7.94886C86.4616 7.94886 87.2712 8.1785 87.972 8.63778C88.6727 9.09706 89.2196 9.74811 89.6126 10.5909C90.0056 11.4337 90.2021 12.428 90.2021 13.5739C90.2021 14.7292 90.0056 15.7306 89.6126 16.5781C89.2196 17.4209 88.6751 18.0743 87.9791 18.5384C87.2831 18.9976 86.4805 19.2273 85.5714 19.2273C84.8707 19.2273 84.3096 19.1113 83.8882 18.8793C83.4668 18.6425 83.1424 18.375 82.9152 18.0767C82.6879 17.7737 82.5127 17.5227 82.3896 17.3239H82.1907V19H80.5714ZM82.2191 13.5455C82.2191 14.3693 82.3399 15.0961 82.5814 15.7259C82.8228 16.3509 83.1756 16.8409 83.6396 17.196C84.1036 17.5464 84.6718 17.7216 85.3441 17.7216C86.0449 17.7216 86.6297 17.5369 87.0984 17.1676C87.5719 16.7936 87.927 16.2917 88.1638 15.6619C88.4052 15.0275 88.526 14.322 88.526 13.5455C88.526 12.7784 88.4076 12.0871 88.1709 11.4716C87.9388 10.8513 87.5861 10.3613 87.1126 10.0014C86.6439 9.63684 86.0544 9.45455 85.3441 9.45455C84.6623 9.45455 84.0894 9.62737 83.6254 9.97301C83.1614 10.3139 82.811 10.7921 82.5743 11.4077C82.3375 12.0185 82.2191 12.7311 82.2191 13.5455ZM99.641 14.5398V8.09091H101.317V19H99.641V17.1534H99.5274C99.2717 17.7074 98.874 18.1785 98.3342 18.5668C97.7944 18.9503 97.1126 19.142 96.2888 19.142C95.6069 19.142 95.0009 18.9929 94.4706 18.6946C93.9403 18.3916 93.5236 17.937 93.2206 17.331C92.9175 16.7202 92.766 15.9508 92.766 15.0227V8.09091H94.4422V14.9091C94.4422 15.7045 94.6647 16.339 95.1098 16.8125C95.5596 17.286 96.1325 17.5227 96.8285 17.5227C97.2452 17.5227 97.669 17.4162 98.0998 17.2031C98.5354 16.9901 98.9 16.6634 99.1936 16.223C99.4919 15.7827 99.641 15.2216 99.641 14.5398ZM109.131 8.09091V9.51136H103.478V8.09091H109.131ZM105.126 5.47727H106.802V15.875C106.802 16.3485 106.871 16.7036 107.008 16.9403C107.15 17.1723 107.33 17.3286 107.548 17.4091C107.77 17.4848 108.005 17.5227 108.251 17.5227C108.435 17.5227 108.587 17.5133 108.705 17.4943C108.824 17.4706 108.918 17.4517 108.989 17.4375L109.33 18.9432C109.217 18.9858 109.058 19.0284 108.854 19.071C108.651 19.1184 108.393 19.142 108.08 19.142C107.607 19.142 107.143 19.0402 106.688 18.8366C106.238 18.633 105.864 18.3229 105.566 17.9062C105.273 17.4896 105.126 16.964 105.126 16.3295V5.47727ZM116.109 19.2273C115.058 19.2273 114.152 18.9953 113.389 18.5312C112.632 18.0625 112.047 17.4091 111.635 16.571C111.228 15.7282 111.024 14.7481 111.024 13.6307C111.024 12.5133 111.228 11.5284 111.635 10.6761C112.047 9.81913 112.62 9.15152 113.354 8.6733C114.092 8.19034 114.954 7.94886 115.939 7.94886C116.507 7.94886 117.068 8.04356 117.622 8.23295C118.176 8.42235 118.68 8.73011 119.135 9.15625C119.59 9.57765 119.952 10.1364 120.222 10.8324C120.492 11.5284 120.626 12.3854 120.626 13.4034V14.1136H112.217V12.6648H118.922C118.922 12.0492 118.799 11.5 118.553 11.017C118.311 10.5341 117.965 10.1529 117.516 9.87358C117.071 9.59422 116.545 9.45455 115.939 9.45455C115.271 9.45455 114.694 9.62026 114.206 9.9517C113.723 10.2784 113.351 10.7045 113.091 11.2301C112.831 11.7557 112.7 12.3191 112.7 12.9205V13.8864C112.7 14.7102 112.842 15.4086 113.126 15.9815C113.415 16.5497 113.815 16.983 114.327 17.2812C114.838 17.5748 115.432 17.7216 116.109 17.7216C116.55 17.7216 116.947 17.66 117.303 17.5369C117.662 17.4091 117.973 17.2197 118.233 16.9688C118.493 16.7131 118.695 16.3958 118.837 16.017L120.456 16.4716C120.286 17.0208 119.999 17.5038 119.597 17.9205C119.194 18.3324 118.697 18.6544 118.105 18.8864C117.513 19.1136 116.848 19.2273 116.109 19.2273ZM130.903 10.5341L129.398 10.9602C129.303 10.7093 129.163 10.4654 128.979 10.2287C128.799 9.98722 128.553 9.78835 128.24 9.6321C127.928 9.47585 127.528 9.39773 127.04 9.39773C126.372 9.39773 125.816 9.55161 125.371 9.85938C124.93 10.1624 124.71 10.5483 124.71 11.017C124.71 11.4337 124.862 11.7628 125.165 12.0043C125.468 12.2457 125.941 12.447 126.585 12.608L128.205 13.0057C129.18 13.2424 129.907 13.6046 130.385 14.0923C130.863 14.5753 131.102 15.1979 131.102 15.9602C131.102 16.5852 130.922 17.1439 130.563 17.6364C130.207 18.1288 129.71 18.517 129.071 18.8011C128.432 19.0852 127.688 19.2273 126.841 19.2273C125.728 19.2273 124.807 18.9858 124.078 18.5028C123.349 18.0199 122.887 17.3144 122.693 16.3864L124.284 15.9886C124.436 16.5758 124.722 17.0161 125.144 17.3097C125.57 17.6032 126.126 17.75 126.813 17.75C127.594 17.75 128.214 17.5843 128.673 17.2528C129.137 16.9167 129.369 16.5142 129.369 16.0455C129.369 15.6667 129.237 15.3494 128.972 15.0938C128.706 14.8333 128.299 14.6392 127.75 14.5114L125.932 14.0852C124.933 13.8485 124.199 13.4815 123.73 12.9844C123.266 12.4825 123.034 11.8551 123.034 11.1023C123.034 10.4867 123.207 9.94223 123.553 9.46875C123.903 8.99527 124.379 8.62358 124.98 8.35369C125.586 8.08381 126.273 7.94886 127.04 7.94886C128.119 7.94886 128.967 8.18561 129.582 8.65909C130.203 9.13258 130.643 9.75758 130.903 10.5341Z" fill="black"/>
</svg>
