<svg width="216" height="25" viewBox="0 0 216 25" fill="none" xmlns="http://www.w3.org/2000/svg">
<rect y="1" width="169" height="24" rx="10" fill="#282525"/>
<path d="M42.358 19H40.5114L45.8523 4.45455H47.6705L53.0114 19H51.1648L46.8182 6.75568H46.7045L42.358 19ZM43.0398 13.3182H50.483V14.8807H43.0398V13.3182ZM59.1104 8.09091V9.51136H53.457V8.09091H59.1104ZM55.1048 5.47727H56.7809V15.875C56.7809 16.3485 56.8496 16.7036 56.9869 16.9403C57.1289 17.1723 57.3088 17.3286 57.5266 17.4091C57.7492 17.4848 57.9835 17.5227 58.2298 17.5227C58.4144 17.5227 58.5659 17.5133 58.6843 17.4943C58.8027 17.4706 58.8974 17.4517 58.9684 17.4375L59.3093 18.9432C59.1957 18.9858 59.0371 19.0284 58.8335 19.071C58.6299 19.1184 58.3718 19.142 58.0593 19.142C57.5858 19.142 57.1218 19.0402 56.6673 18.8366C56.2174 18.633 55.8434 18.3229 55.5451 17.9062C55.2515 17.4896 55.1048 16.964 55.1048 16.3295V5.47727ZM66.3761 8.09091V9.51136H60.7227V8.09091H66.3761ZM62.3704 5.47727H64.0465V15.875C64.0465 16.3485 64.1152 16.7036 64.2525 16.9403C64.3945 17.1723 64.5745 17.3286 64.7923 17.4091C65.0148 17.4848 65.2492 17.5227 65.4954 17.5227C65.68 17.5227 65.8316 17.5133 65.9499 17.4943C66.0683 17.4706 66.163 17.4517 66.234 17.4375L66.5749 18.9432C66.4613 18.9858 66.3027 19.0284 66.0991 19.071C65.8955 19.1184 65.6374 19.142 65.3249 19.142C64.8514 19.142 64.3874 19.0402 63.9329 18.8366C63.4831 18.633 63.109 18.3229 62.8107 17.9062C62.5172 17.4896 62.3704 16.964 62.3704 16.3295V5.47727ZM68.8974 19V8.09091H70.5167V9.73864H70.6303C70.8292 9.19886 71.189 8.76089 71.7099 8.42472C72.2307 8.08854 72.8178 7.92045 73.4712 7.92045C73.5943 7.92045 73.7482 7.92282 73.9329 7.92756C74.1175 7.93229 74.2572 7.93939 74.3519 7.94886V9.65341C74.2951 9.6392 74.1649 9.6179 73.9613 9.58949C73.7624 9.55634 73.5517 9.53977 73.3292 9.53977C72.7989 9.53977 72.3254 9.65104 71.9087 9.87358C71.4968 10.0914 71.1701 10.3944 70.9286 10.7827C70.6919 11.1662 70.5735 11.6042 70.5735 12.0966V19H68.8974ZM76.3388 19V8.09091H78.0149V19H76.3388ZM77.1911 6.27273C76.8643 6.27273 76.5826 6.16146 76.3459 5.93892C76.1139 5.71638 75.9979 5.44886 75.9979 5.13636C75.9979 4.82386 76.1139 4.55634 76.3459 4.33381C76.5826 4.11127 76.8643 4 77.1911 4C77.5178 4 77.7971 4.11127 78.0291 4.33381C78.2659 4.55634 78.3842 4.82386 78.3842 5.13636C78.3842 5.44886 78.2659 5.71638 78.0291 5.93892C77.7971 6.16146 77.5178 6.27273 77.1911 6.27273ZM81.3121 19V4.45455H82.9883V9.82386H83.1303C83.2534 9.63447 83.4239 9.39299 83.6417 9.09943C83.8642 8.80114 84.1815 8.53598 84.5934 8.30398C85.0101 8.06723 85.5735 7.94886 86.2837 7.94886C87.2023 7.94886 88.012 8.1785 88.7127 8.63778C89.4135 9.09706 89.9603 9.74811 90.3533 10.5909C90.7463 11.4337 90.9428 12.428 90.9428 13.5739C90.9428 14.7292 90.7463 15.7306 90.3533 16.5781C89.9603 17.4209 89.4158 18.0743 88.7198 18.5384C88.0238 18.9976 87.2212 19.2273 86.3121 19.2273C85.6114 19.2273 85.0503 19.1113 84.6289 18.8793C84.2075 18.6425 83.8832 18.375 83.6559 18.0767C83.4286 17.7737 83.2534 17.5227 83.1303 17.3239H82.9315V19H81.3121ZM82.9599 13.5455C82.9599 14.3693 83.0806 15.0961 83.3221 15.7259C83.5636 16.3509 83.9163 16.8409 84.3803 17.196C84.8443 17.5464 85.4125 17.7216 86.0849 17.7216C86.7856 17.7216 87.3704 17.5369 87.8391 17.1676C88.3126 16.7936 88.6677 16.2917 88.9045 15.6619C89.146 15.0275 89.2667 14.322 89.2667 13.5455C89.2667 12.7784 89.1483 12.0871 88.9116 11.4716C88.6796 10.8513 88.3268 10.3613 87.8533 10.0014C87.3846 9.63684 86.7951 9.45455 86.0849 9.45455C85.4031 9.45455 84.8301 9.62737 84.3661 9.97301C83.9021 10.3139 83.5517 10.7921 83.315 11.4077C83.0782 12.0185 82.9599 12.7311 82.9599 13.5455ZM100.382 14.5398V8.09091H102.058V19H100.382V17.1534H100.268C100.012 17.7074 99.6147 18.1785 99.0749 18.5668C98.5352 18.9503 97.8533 19.142 97.0295 19.142C96.3477 19.142 95.7416 18.9929 95.2113 18.6946C94.681 18.3916 94.2643 17.937 93.9613 17.331C93.6583 16.7202 93.5067 15.9508 93.5067 15.0227V8.09091H95.1829V14.9091C95.1829 15.7045 95.4054 16.339 95.8505 16.8125C96.3003 17.286 96.8732 17.5227 97.5692 17.5227C97.9859 17.5227 98.4097 17.4162 98.8406 17.2031C99.2762 16.9901 99.6407 16.6634 99.9343 16.223C100.233 15.7827 100.382 15.2216 100.382 14.5398ZM109.872 8.09091V9.51136H104.219V8.09091H109.872ZM105.866 5.47727H107.543V15.875C107.543 16.3485 107.611 16.7036 107.749 16.9403C107.891 17.1723 108.071 17.3286 108.288 17.4091C108.511 17.4848 108.745 17.5227 108.991 17.5227C109.176 17.5227 109.328 17.5133 109.446 17.4943C109.564 17.4706 109.659 17.4517 109.73 17.4375L110.071 18.9432C109.957 18.9858 109.799 19.0284 109.595 19.071C109.392 19.1184 109.134 19.142 108.821 19.142C108.348 19.142 107.884 19.0402 107.429 18.8366C106.979 18.633 106.605 18.3229 106.307 17.9062C106.013 17.4896 105.866 16.964 105.866 16.3295V5.47727ZM116.85 19.2273C115.799 19.2273 114.892 18.9953 114.13 18.5312C113.372 18.0625 112.788 17.4091 112.376 16.571C111.969 15.7282 111.765 14.7481 111.765 13.6307C111.765 12.5133 111.969 11.5284 112.376 10.6761C112.788 9.81913 113.361 9.15152 114.094 8.6733C114.833 8.19034 115.695 7.94886 116.68 7.94886C117.248 7.94886 117.809 8.04356 118.363 8.23295C118.917 8.42235 119.421 8.73011 119.876 9.15625C120.33 9.57765 120.692 10.1364 120.962 10.8324C121.232 11.5284 121.367 12.3854 121.367 13.4034V14.1136H112.958V12.6648H119.663C119.663 12.0492 119.54 11.5 119.293 11.017C119.052 10.5341 118.706 10.1529 118.256 9.87358C117.811 9.59422 117.286 9.45455 116.68 9.45455C116.012 9.45455 115.434 9.62026 114.947 9.9517C114.464 10.2784 114.092 10.7045 113.832 11.2301C113.571 11.7557 113.441 12.3191 113.441 12.9205V13.8864C113.441 14.7102 113.583 15.4086 113.867 15.9815C114.156 16.5497 114.556 16.983 115.067 17.2812C115.579 17.5748 116.173 17.7216 116.85 17.7216C117.29 17.7216 117.688 17.66 118.043 17.5369C118.403 17.4091 118.713 17.2197 118.974 16.9688C119.234 16.7131 119.435 16.3958 119.577 16.017L121.197 16.4716C121.026 17.0208 120.74 17.5038 120.337 17.9205C119.935 18.3324 119.438 18.6544 118.846 18.8864C118.254 19.1136 117.589 19.2273 116.85 19.2273ZM131.644 10.5341L130.138 10.9602C130.044 10.7093 129.904 10.4654 129.719 10.2287C129.54 9.98722 129.293 9.78835 128.981 9.6321C128.668 9.47585 128.268 9.39773 127.781 9.39773C127.113 9.39773 126.557 9.55161 126.112 9.85938C125.671 10.1624 125.451 10.5483 125.451 11.017C125.451 11.4337 125.603 11.7628 125.906 12.0043C126.209 12.2457 126.682 12.447 127.326 12.608L128.945 13.0057C129.921 13.2424 130.647 13.6046 131.126 14.0923C131.604 14.5753 131.843 15.1979 131.843 15.9602C131.843 16.5852 131.663 17.1439 131.303 17.6364C130.948 18.1288 130.451 18.517 129.812 18.8011C129.173 19.0852 128.429 19.2273 127.582 19.2273C126.469 19.2273 125.548 18.9858 124.819 18.5028C124.09 18.0199 123.628 17.3144 123.434 16.3864L125.025 15.9886C125.176 16.5758 125.463 17.0161 125.884 17.3097C126.31 17.6032 126.867 17.75 127.553 17.75C128.335 17.75 128.955 17.5843 129.414 17.2528C129.878 16.9167 130.11 16.5142 130.11 16.0455C130.11 15.6667 129.978 15.3494 129.712 15.0938C129.447 14.8333 129.04 14.6392 128.491 14.5114L126.673 14.0852C125.674 13.8485 124.94 13.4815 124.471 12.9844C124.007 12.4825 123.775 11.8551 123.775 11.1023C123.775 10.4867 123.948 9.94223 124.293 9.46875C124.644 8.99527 125.12 8.62358 125.721 8.35369C126.327 8.08381 127.013 7.94886 127.781 7.94886C128.86 7.94886 129.708 8.18561 130.323 8.65909C130.943 9.13258 131.384 9.75758 131.644 10.5341Z" fill="white"/>
</svg>
