<svg width="30" height="50" viewBox="0 0 30 50" fill="none" xmlns="http://www.w3.org/2000/svg">
<path d="M0 25C0 11.1929 11.1929 0 25 0H30V50H25C11.1929 50 0 38.8071 0 25Z" fill="#601865"/>
<path fill-rule="evenodd" clip-rule="evenodd" d="M9.58951 14.568C9.58951 12.6261 11.2156 12.3185 12.181 13.1367C13.1465 13.955 21.12 21.4713 21.9659 22.4746C22.8117 23.4781 22.9794 24.2657 21.9819 25.2513C20.9842 26.2368 13.5381 33.6665 12.2801 34.4521C11.022 35.238 9.5675 34.9119 9.5675 33.0053C9.5675 31.0986 9.58951 16.5101 9.58951 14.568ZM19.1515 24.3976C19.4014 24.1569 19.4046 23.7661 19.1571 23.523L13.0153 17.4908C12.7686 17.2485 12.5684 17.2984 12.5684 17.5992L12.5677 30.1965C12.5677 30.4986 12.7706 30.5481 13.0198 30.3079L19.1515 24.3976ZM27.5199 13.6006C27.5516 13.2531 27.2923 12.9445 26.8764 12.9445H25.3482C24.6665 12.9445 24.6917 13.0378 24.6917 13.4728C24.6917 13.9077 24.7652 33.6177 24.7775 33.9912C24.7894 34.3649 24.9752 34.6011 25.3779 34.6011C25.7806 34.6011 26.544 34.6011 26.9316 34.6003C27.3194 34.5993 27.5076 34.3405 27.5076 34.0481C27.5076 33.7556 27.4882 13.9482 27.5199 13.6006Z" fill="white"/>
</svg>
