<svg width="30" height="50" viewBox="0 0 30 50" fill="none" xmlns="http://www.w3.org/2000/svg">
<path d="M0 25C0 11.1929 11.1929 0 25 0H30V50H25C11.1929 50 0 38.8071 0 25V25Z" fill="#F174E4"/>
<path fill-rule="evenodd" clip-rule="evenodd" d="M8.02206 15.844C8.02206 13.9141 9.65222 13.6084 10.6201 14.4215C11.5879 15.2348 19.5815 22.7043 20.4294 23.7014C21.2774 24.6987 21.4455 25.4815 20.4455 26.4609C19.4453 27.4403 11.9806 34.8238 10.7194 35.6046C9.45813 36.3856 8 36.0615 8 34.1667C8 32.2719 8.02206 17.774 8.02206 15.844ZM17.608 25.6125C17.8586 25.3733 17.8617 24.985 17.6136 24.7433L11.4565 18.7486C11.2091 18.5078 11.0084 18.5574 11.0084 18.8564L11.0077 31.3753C11.0077 31.6756 11.2111 31.7247 11.461 31.4861L17.608 25.6125ZM25.9974 14.8825C26.0292 14.5372 25.7693 14.2305 25.3523 14.2305H23.8203C23.1368 14.2305 23.1621 14.3233 23.1621 14.7556C23.1621 15.1877 23.2358 34.7754 23.2481 35.1466C23.2601 35.5179 23.4463 35.7526 23.85 35.7526C24.2537 35.7526 25.0191 35.7526 25.4076 35.7518C25.7964 35.7508 25.985 35.4937 25.985 35.203C25.985 34.9124 25.9656 15.228 25.9974 14.8825Z" fill="black"/>
</svg>
