<svg width="354" height="88" viewBox="0 0 354 88" fill="none" xmlns="http://www.w3.org/2000/svg">
<rect width="75" height="88" rx="10" fill="#282525"/>
<path d="M0 10C0 4.47715 4.47715 0 10 0H65C70.5229 0 75 4.47715 75 10V31H0V10Z" fill="#601865"/>
<path d="M3.76136 23V8.45455H8.84659C9.85985 8.45455 10.6955 8.62973 11.3537 8.98011C12.0118 9.32576 12.5019 9.79214 12.8239 10.3793C13.1458 10.9616 13.3068 11.608 13.3068 12.3182C13.3068 12.9432 13.1955 13.4593 12.973 13.8665C12.7552 14.2737 12.4664 14.5956 12.1065 14.8324C11.7514 15.0691 11.3655 15.2443 10.9489 15.358V15.5C11.3939 15.5284 11.8414 15.6847 12.2912 15.9688C12.741 16.2528 13.1174 16.66 13.4205 17.1903C13.7235 17.7206 13.875 18.3693 13.875 19.1364C13.875 19.8655 13.7093 20.5213 13.3778 21.1037C13.0464 21.6861 12.5232 22.1477 11.8082 22.4886C11.0933 22.8295 10.1629 23 9.01705 23H3.76136ZM5.52273 21.4375H9.01705C10.1676 21.4375 10.9844 21.215 11.4673 20.7699C11.955 20.3201 12.1989 19.7756 12.1989 19.1364C12.1989 18.6439 12.0734 18.1894 11.8224 17.7727C11.5715 17.3513 11.214 17.0152 10.75 16.7642C10.286 16.5085 9.73674 16.3807 9.10227 16.3807H5.52273V21.4375ZM5.52273 14.8466H8.78977C9.32008 14.8466 9.7983 14.7424 10.2244 14.5341C10.6553 14.3258 10.9962 14.0322 11.2472 13.6534C11.5028 13.2746 11.6307 12.8295 11.6307 12.3182C11.6307 11.679 11.4081 11.1368 10.9631 10.6918C10.518 10.242 9.8125 10.017 8.84659 10.017H5.52273V14.8466ZM16.7692 23V8.45455H21.6839C22.8203 8.45455 23.7531 8.64867 24.4822 9.03693C25.2114 9.42045 25.7512 9.94839 26.1016 10.6207C26.4519 11.2931 26.6271 12.0578 26.6271 12.9148C26.6271 13.7718 26.4519 14.5317 26.1016 15.1946C25.7512 15.8575 25.2138 16.3783 24.4893 16.7571C23.7649 17.1312 22.8393 17.3182 21.7124 17.3182H17.7351V15.7273H21.6555C22.4321 15.7273 23.0571 15.6136 23.5305 15.3864C24.0088 15.1591 24.3544 14.8371 24.5675 14.4205C24.7853 13.9991 24.8942 13.4972 24.8942 12.9148C24.8942 12.3324 24.7853 11.8234 24.5675 11.3878C24.3497 10.9522 24.0017 10.616 23.5234 10.3793C23.0452 10.1378 22.4131 10.017 21.6271 10.017H18.5305V23H16.7692ZM23.6158 16.4659L27.1953 23H25.1499L21.6271 16.4659H23.6158ZM30.1587 23H28.3121L33.6531 8.45455H35.4712L40.8121 23H38.9656L34.619 10.7557H34.5053L30.1587 23ZM30.8406 17.3182H38.2837V18.8807H30.8406V17.3182ZM54.6119 8.45455V23H52.9073L44.9812 11.5795H44.8391V23H43.0778V8.45455H44.7823L52.7369 19.9034H52.8789V8.45455H54.6119ZM62.625 23H58.1364V8.45455H62.8239C64.2348 8.45455 65.4422 8.74574 66.446 9.32812C67.4498 9.90578 68.2192 10.7367 68.7543 11.821C69.2893 12.9006 69.5568 14.1932 69.5568 15.6989C69.5568 17.214 69.2869 18.5185 68.7472 19.6122C68.2074 20.7012 67.4214 21.5393 66.3892 22.1264C65.357 22.7088 64.1023 23 62.625 23ZM59.8977 21.4375H62.5114C63.714 21.4375 64.7107 21.2055 65.5014 20.7415C66.2921 20.2775 66.8816 19.617 67.2699 18.7599C67.6581 17.9029 67.8523 16.8826 67.8523 15.6989C67.8523 14.5246 67.6605 13.5137 67.277 12.6662C66.8935 11.8139 66.3205 11.1605 65.5582 10.706C64.7959 10.2467 63.8466 10.017 62.7102 10.017H59.8977V21.4375Z" fill="white"/>
<rect x="93" width="75" height="88" rx="10" fill="#282525"/>
<path d="M93 10C93 4.47715 97.4772 0 103 0H158C163.523 0 168 4.47715 168 10V31H93V10Z" fill="#601865"/>
<path d="M100.761 23V8.45455H105.676C106.813 8.45455 107.745 8.64867 108.474 9.03693C109.204 9.42045 109.743 9.94839 110.094 10.6207C110.444 11.2931 110.619 12.0578 110.619 12.9148C110.619 13.7718 110.444 14.5317 110.094 15.1946C109.743 15.8575 109.206 16.3783 108.482 16.7571C107.757 17.1312 106.831 17.3182 105.705 17.3182H101.727V15.7273H105.648C106.424 15.7273 107.049 15.6136 107.523 15.3864C108.001 15.1591 108.347 14.8371 108.56 14.4205C108.777 13.9991 108.886 13.4972 108.886 12.9148C108.886 12.3324 108.777 11.8234 108.56 11.3878C108.342 10.9522 107.994 10.616 107.516 10.3793C107.037 10.1378 106.405 10.017 105.619 10.017H102.523V23H100.761ZM107.608 16.4659L111.188 23H109.142L105.619 16.4659H107.608ZM113.554 23V8.45455H122.333V10.017H115.316V14.9318H121.878V16.4943H115.316V21.4375H122.446V23H113.554ZM125.507 23V8.45455H134.229V10.017H127.269V14.9318H133.576V16.4943H127.269V23H125.507ZM137.246 23V8.45455H146.024V10.017H139.007V14.9318H145.57V16.4943H139.007V21.4375H146.138V23H137.246ZM149.199 23V8.45455H154.114C155.25 8.45455 156.183 8.64867 156.912 9.03693C157.641 9.42045 158.181 9.94839 158.531 10.6207C158.882 11.2931 159.057 12.0578 159.057 12.9148C159.057 13.7718 158.882 14.5317 158.531 15.1946C158.181 15.8575 157.643 16.3783 156.919 16.7571C156.195 17.1312 155.269 17.3182 154.142 17.3182H150.165V15.7273H154.085C154.862 15.7273 155.487 15.6136 155.96 15.3864C156.438 15.1591 156.784 14.8371 156.997 14.4205C157.215 13.9991 157.324 13.4972 157.324 12.9148C157.324 12.3324 157.215 11.8234 156.997 11.3878C156.779 10.9522 156.431 10.616 155.953 10.3793C155.475 10.1378 154.843 10.017 154.057 10.017H150.96V23H149.199ZM156.045 16.4659L159.625 23H157.58L154.057 16.4659H156.045Z" fill="white"/>
<rect x="186" width="75" height="88" rx="10" fill="#282525"/>
<path d="M186 10C186 4.47715 190.477 0 196 0H251C256.523 0 261 4.47715 261 10V31H186V10Z" fill="#601865"/>
<path d="M190.761 8.45455H192.864L197.807 20.5284H197.977L202.92 8.45455H205.023V23H203.375V11.9489H203.233L198.688 23H197.097L192.551 11.9489H192.409V23H190.761V8.45455ZM220.827 15.7273C220.827 17.2614 220.55 18.5871 219.996 19.7045C219.442 20.822 218.682 21.6837 217.716 22.2898C216.75 22.8958 215.647 23.1989 214.407 23.1989C213.166 23.1989 212.063 22.8958 211.097 22.2898C210.131 21.6837 209.371 20.822 208.817 19.7045C208.263 18.5871 207.986 17.2614 207.986 15.7273C207.986 14.1932 208.263 12.8674 208.817 11.75C209.371 10.6326 210.131 9.77083 211.097 9.16477C212.063 8.55871 213.166 8.25568 214.407 8.25568C215.647 8.25568 216.75 8.55871 217.716 9.16477C218.682 9.77083 219.442 10.6326 219.996 11.75C220.55 12.8674 220.827 14.1932 220.827 15.7273ZM219.123 15.7273C219.123 14.4678 218.912 13.4048 218.49 12.5384C218.074 11.6719 217.508 11.0161 216.793 10.571C216.083 10.1259 215.287 9.90341 214.407 9.90341C213.526 9.90341 212.728 10.1259 212.013 10.571C211.303 11.0161 210.737 11.6719 210.316 12.5384C209.899 13.4048 209.691 14.4678 209.691 15.7273C209.691 16.9867 209.899 18.0497 210.316 18.9162C210.737 19.7827 211.303 20.4384 212.013 20.8835C212.728 21.3286 213.526 21.5511 214.407 21.5511C215.287 21.5511 216.083 21.3286 216.793 20.8835C217.508 20.4384 218.074 19.7827 218.49 18.9162C218.912 18.0497 219.123 16.9867 219.123 15.7273ZM228.277 23H223.789V8.45455H228.476C229.887 8.45455 231.095 8.74574 232.098 9.32812C233.102 9.90578 233.872 10.7367 234.407 11.821C234.942 12.9006 235.209 14.1932 235.209 15.6989C235.209 17.214 234.939 18.5185 234.4 19.6122C233.86 20.7012 233.074 21.5393 232.042 22.1264C231.009 22.7088 229.755 23 228.277 23ZM225.55 21.4375H228.164C229.366 21.4375 230.363 21.2055 231.154 20.7415C231.944 20.2775 232.534 19.617 232.922 18.7599C233.31 17.9029 233.505 16.8826 233.505 15.6989C233.505 14.5246 233.313 13.5137 232.929 12.6662C232.546 11.8139 231.973 11.1605 231.211 10.706C230.448 10.2467 229.499 10.017 228.363 10.017H225.55V21.4375ZM238.164 23V8.45455H246.942V10.017H239.925V14.9318H246.488V16.4943H239.925V21.4375H247.056V23H238.164ZM250.117 23V8.45455H251.878V21.4375H258.64V23H250.117Z" fill="white"/>
<rect x="279" width="75" height="88" rx="10" fill="#282525"/>
<path d="M279 10C279 4.47715 283.477 0 289 0H344C349.523 0 354 4.47715 354 10V31H279V10Z" fill="#601865"/>
<path d="M295.466 13H293.705C293.6 12.4934 293.418 12.0483 293.158 11.6648C292.902 11.2812 292.589 10.9593 292.22 10.6989C291.856 10.4337 291.451 10.2348 291.006 10.1023C290.561 9.9697 290.097 9.90341 289.614 9.90341C288.733 9.90341 287.935 10.1259 287.22 10.571C286.51 11.0161 285.944 11.6719 285.523 12.5384C285.106 13.4048 284.898 14.4678 284.898 15.7273C284.898 16.9867 285.106 18.0497 285.523 18.9162C285.944 19.7827 286.51 20.4384 287.22 20.8835C287.935 21.3286 288.733 21.5511 289.614 21.5511C290.097 21.5511 290.561 21.4848 291.006 21.3523C291.451 21.2197 291.856 21.0232 292.22 20.7628C292.589 20.4976 292.902 20.1733 293.158 19.7898C293.418 19.4015 293.6 18.9564 293.705 18.4545H295.466C295.333 19.1979 295.092 19.8632 294.741 20.4503C294.391 21.0374 293.955 21.5369 293.435 21.9489C292.914 22.3561 292.329 22.6662 291.68 22.8793C291.036 23.0923 290.348 23.1989 289.614 23.1989C288.373 23.1989 287.27 22.8958 286.304 22.2898C285.338 21.6837 284.578 20.822 284.024 19.7045C283.47 18.5871 283.193 17.2614 283.193 15.7273C283.193 14.1932 283.47 12.8674 284.024 11.75C284.578 10.6326 285.338 9.77083 286.304 9.16477C287.27 8.55871 288.373 8.25568 289.614 8.25568C290.348 8.25568 291.036 8.36222 291.68 8.57528C292.329 8.78835 292.914 9.10085 293.435 9.51278C293.955 9.91998 294.391 10.4171 294.741 11.0043C295.092 11.5866 295.333 12.2519 295.466 13ZM310.585 15.7273C310.585 17.2614 310.308 18.5871 309.754 19.7045C309.2 20.822 308.44 21.6837 307.474 22.2898C306.508 22.8958 305.405 23.1989 304.164 23.1989C302.924 23.1989 301.821 22.8958 300.855 22.2898C299.889 21.6837 299.129 20.822 298.575 19.7045C298.021 18.5871 297.744 17.2614 297.744 15.7273C297.744 14.1932 298.021 12.8674 298.575 11.75C299.129 10.6326 299.889 9.77083 300.855 9.16477C301.821 8.55871 302.924 8.25568 304.164 8.25568C305.405 8.25568 306.508 8.55871 307.474 9.16477C308.44 9.77083 309.2 10.6326 309.754 11.75C310.308 12.8674 310.585 14.1932 310.585 15.7273ZM308.88 15.7273C308.88 14.4678 308.67 13.4048 308.248 12.5384C307.832 11.6719 307.266 11.0161 306.551 10.571C305.841 10.1259 305.045 9.90341 304.164 9.90341C303.284 9.90341 302.486 10.1259 301.771 10.571C301.061 11.0161 300.495 11.6719 300.074 12.5384C299.657 13.4048 299.449 14.4678 299.449 15.7273C299.449 16.9867 299.657 18.0497 300.074 18.9162C300.495 19.7827 301.061 20.4384 301.771 20.8835C302.486 21.3286 303.284 21.5511 304.164 21.5511C305.045 21.5511 305.841 21.3286 306.551 20.8835C307.266 20.4384 307.832 19.7827 308.248 18.9162C308.67 18.0497 308.88 16.9867 308.88 15.7273ZM313.547 23V8.45455H315.308V21.4375H322.069V23H313.547ZM336.503 15.7273C336.503 17.2614 336.226 18.5871 335.672 19.7045C335.118 20.822 334.358 21.6837 333.392 22.2898C332.426 22.8958 331.323 23.1989 330.082 23.1989C328.842 23.1989 327.739 22.8958 326.773 22.2898C325.807 21.6837 325.047 20.822 324.493 19.7045C323.939 18.5871 323.662 17.2614 323.662 15.7273C323.662 14.1932 323.939 12.8674 324.493 11.75C325.047 10.6326 325.807 9.77083 326.773 9.16477C327.739 8.55871 328.842 8.25568 330.082 8.25568C331.323 8.25568 332.426 8.55871 333.392 9.16477C334.358 9.77083 335.118 10.6326 335.672 11.75C336.226 12.8674 336.503 14.1932 336.503 15.7273ZM334.798 15.7273C334.798 14.4678 334.588 13.4048 334.166 12.5384C333.75 11.6719 333.184 11.0161 332.469 10.571C331.759 10.1259 330.963 9.90341 330.082 9.90341C329.202 9.90341 328.404 10.1259 327.689 10.571C326.979 11.0161 326.413 11.6719 325.991 12.5384C325.575 13.4048 325.366 14.4678 325.366 15.7273C325.366 16.9867 325.575 18.0497 325.991 18.9162C326.413 19.7827 326.979 20.4384 327.689 20.8835C328.404 21.3286 329.202 21.5511 330.082 21.5511C330.963 21.5511 331.759 21.3286 332.469 20.8835C333.184 20.4384 333.75 19.7827 334.166 18.9162C334.588 18.0497 334.798 16.9867 334.798 15.7273ZM339.464 23V8.45455H344.379C345.516 8.45455 346.448 8.64867 347.178 9.03693C347.907 9.42045 348.446 9.94839 348.797 10.6207C349.147 11.2931 349.322 12.0578 349.322 12.9148C349.322 13.7718 349.147 14.5317 348.797 15.1946C348.446 15.8575 347.909 16.3783 347.185 16.7571C346.46 17.1312 345.535 17.3182 344.408 17.3182H340.43V15.7273H344.351C345.127 15.7273 345.752 15.6136 346.226 15.3864C346.704 15.1591 347.05 14.8371 347.263 14.4205C347.481 13.9991 347.589 13.4972 347.589 12.9148C347.589 12.3324 347.481 11.8234 347.263 11.3878C347.045 10.9522 346.697 10.616 346.219 10.3793C345.741 10.1378 345.108 10.017 344.322 10.017H341.226V23H339.464ZM346.311 16.4659L349.891 23H347.845L344.322 16.4659H346.311Z" fill="white"/>
</svg>
