<svg width="33" height="33" viewBox="0 0 33 33" fill="none" xmlns="http://www.w3.org/2000/svg">
<circle cx="16.5" cy="16.5" r="16.5" fill="#F174E4"/>
<path d="M16.2051 26.7154C15.791 26.7152 15.3774 26.6865 14.9672 26.6295C14.189 26.5215 13.4272 26.3165 12.6999 26.0194C11.1847 25.3967 9.864 24.3796 8.87503 23.0737C8.37312 22.4179 7.96303 21.6967 7.65608 20.9301C7.06633 19.451 6.86945 17.8444 7.0846 16.2666C7.29976 14.6888 7.91961 13.1936 8.88387 11.9263C9.38564 11.2662 9.97507 10.6777 10.6359 10.1768C10.9111 9.98259 11.251 9.90269 11.584 9.95397C11.917 10.0052 12.2171 10.1837 12.4212 10.4518C12.6253 10.7198 12.7174 11.0566 12.6782 11.3913C12.639 11.7259 12.4715 12.0323 12.211 12.2459C11.7382 12.6035 11.3162 13.0238 10.9567 13.4952C10.6084 13.9536 10.3206 14.455 10.1003 14.9869C9.88449 15.5099 9.73676 16.0584 9.66071 16.6189C9.5048 17.7528 9.64672 18.9077 10.0725 19.9701C10.2921 20.5177 10.5853 21.0327 10.9441 21.5011C11.303 21.9752 11.7245 22.3984 12.1971 22.7592C12.6541 23.1074 13.1542 23.3948 13.6851 23.6143C14.2106 23.8297 14.761 23.9782 15.3235 24.0564C15.8814 24.1337 16.4471 24.1371 17.006 24.0665C17.5778 23.9931 18.1381 23.8475 18.6733 23.6333C19.777 23.1866 20.7412 22.4531 21.4662 21.5086C22.1601 20.601 22.6043 19.5275 22.7546 18.3949C22.8314 17.8353 22.8356 17.2681 22.7672 16.7074C22.6948 16.1361 22.5492 15.5766 22.334 15.0425C22.1126 14.4906 21.8173 13.9713 21.4561 13.4989C21.0994 13.0277 20.6799 12.6073 20.2093 12.2497C20.0655 12.1497 19.9433 12.0218 19.8501 11.8735C19.7569 11.7252 19.6946 11.5596 19.667 11.3866C19.6393 11.2136 19.6469 11.0369 19.6892 10.8669C19.7315 10.6969 19.8077 10.5373 19.9132 10.3974C20.0187 10.2576 20.1514 10.1406 20.3032 10.0533C20.4551 9.96597 20.623 9.91023 20.7969 9.88939C20.9709 9.86855 21.1472 9.88305 21.3154 9.93201C21.4835 9.98097 21.6401 10.0634 21.7757 10.1743C22.4356 10.6754 23.0238 11.2644 23.5239 11.9251C24.028 12.5846 24.4401 13.3095 24.7491 14.08C25.0458 14.8207 25.2466 15.5962 25.3466 16.3878C25.5915 18.4027 25.1644 20.4421 24.1315 22.1893C23.0987 23.9366 21.5179 25.2941 19.6346 26.0509C18.8944 26.3457 18.1198 26.5456 17.3293 26.6459C16.9564 26.6927 16.581 26.715 16.2051 26.7154ZM16.2077 17.2581C15.8628 17.2581 15.5321 17.1212 15.2881 16.8775C15.0442 16.6338 14.9069 16.3032 14.9066 15.9583V8.30105C14.9066 7.95599 15.0437 7.62506 15.2877 7.38107C15.5317 7.13707 15.8626 7 16.2077 7C16.5527 7 16.8836 7.13707 17.1276 7.38107C17.3716 7.62506 17.5087 7.95599 17.5087 8.30105V15.9583C17.5087 16.3034 17.3716 16.6343 17.1276 16.8783C16.8836 17.1223 16.5527 17.2594 16.2077 17.2594V17.2581Z" fill="black"/>
</svg>
