<svg width="33" height="33" viewBox="0 0 33 33" fill="none" xmlns="http://www.w3.org/2000/svg">
<circle cx="16.5" cy="16.5" r="16.5" fill="#601865"/>
<path d="M16.78 25.4663C16.3669 25.4661 15.9544 25.4373 15.5452 25.3798C14.7689 25.2712 14.0091 25.0649 13.2835 24.7659C11.7722 24.1394 10.4547 23.1159 9.46824 21.8018C8.96759 21.142 8.55852 20.4163 8.25234 19.6449C7.66406 18.1565 7.46768 16.5398 7.68229 14.9522C7.89691 13.3645 8.51521 11.8599 9.47706 10.5848C9.97758 9.92059 10.5655 9.32833 11.2247 8.82438C11.4993 8.62891 11.8383 8.54852 12.1705 8.60011C12.5026 8.65171 12.802 8.83128 13.0056 9.10103C13.2091 9.37077 13.301 9.70967 13.2619 10.0464C13.2228 10.3831 13.0558 10.6914 12.7959 10.9064C12.3243 11.2662 11.9034 11.6891 11.5447 12.1634C11.1973 12.6248 10.9102 13.1293 10.6904 13.6646C10.4752 14.1908 10.3278 14.7427 10.252 15.3068C10.0964 16.4477 10.238 17.6098 10.6627 18.6789C10.8818 19.2298 11.1743 19.7481 11.5321 20.2194C11.8901 20.6964 12.3106 21.1223 12.782 21.4853C13.2378 21.8357 13.7367 22.125 14.2663 22.3458C14.7905 22.5626 15.3395 22.712 15.9005 22.7907C16.4571 22.8685 17.0214 22.8719 17.5789 22.8009C18.1493 22.727 18.7081 22.5805 19.2421 22.3649C20.3429 21.9154 21.3047 21.1773 22.0279 20.227C22.7201 19.3137 23.1632 18.2335 23.3131 17.0939C23.3897 16.5307 23.3939 15.96 23.3257 15.3957C23.2535 14.8209 23.1082 14.2579 22.8935 13.7205C22.6728 13.1651 22.3782 12.6426 22.0178 12.1673C21.662 11.693 21.2436 11.2701 20.7742 10.9102C20.6307 10.8096 20.5089 10.6809 20.4159 10.5316C20.3229 10.3824 20.2608 10.2158 20.2332 10.0417C20.2056 9.86766 20.2132 9.68979 20.2554 9.51876C20.2976 9.34772 20.3736 9.18705 20.4788 9.04636C20.5841 8.90568 20.7164 8.78788 20.8679 8.70003C21.0194 8.61219 21.1869 8.5561 21.3603 8.53513C21.5338 8.51417 21.7097 8.52876 21.8775 8.57802C22.0452 8.62729 22.2014 8.71022 22.3366 8.82184C22.9949 9.32603 23.5816 9.91876 24.0805 10.5835C24.5833 11.2472 24.9944 11.9767 25.3027 12.7519C25.5986 13.4972 25.7989 14.2776 25.8986 15.0741C26.1429 17.1016 25.7169 19.1538 24.6866 20.912C23.6563 22.6702 22.0795 24.0361 20.2009 24.7977C19.4625 25.0943 18.6899 25.2955 17.9014 25.3964C17.5294 25.4434 17.1549 25.4659 16.78 25.4663ZM16.7825 15.9499C16.4386 15.9499 16.1087 15.8121 15.8653 15.5669C15.622 15.3217 15.4851 14.989 15.4847 14.642V6.93687C15.4847 6.58965 15.6215 6.25666 15.8649 6.01114C16.1082 5.76562 16.4383 5.62769 16.7825 5.62769C17.1267 5.62769 17.4568 5.76562 17.7002 6.01114C17.9436 6.25666 18.0803 6.58965 18.0803 6.93687V14.642C18.0803 14.9892 17.9436 15.3222 17.7002 15.5677C17.4568 15.8132 17.1267 15.9512 16.7825 15.9512V15.9499Z" fill="white"/>
</svg>
