<svg width="212" height="24" viewBox="0 0 212 24" fill="none" xmlns="http://www.w3.org/2000/svg">
<rect width="169" height="24" rx="10" fill="#D9D9D9"/>
<path d="M44.7614 4.45455H46.8636L51.8068 16.5284H51.9773L56.9205 4.45455H59.0227V19H57.375V7.94886H57.233L52.6875 19H51.0966L46.5511 7.94886H46.4091V19H44.7614V4.45455ZM66.9009 19.2273C65.8498 19.2273 64.9431 18.9953 64.1808 18.5312C63.4232 18.0625 62.8384 17.4091 62.4265 16.571C62.0193 15.7282 61.8157 14.7481 61.8157 13.6307C61.8157 12.5133 62.0193 11.5284 62.4265 10.6761C62.8384 9.81913 63.4113 9.15152 64.1452 8.6733C64.8839 8.19034 65.7456 7.94886 66.7305 7.94886C67.2987 7.94886 67.8597 8.04356 68.4137 8.23295C68.9677 8.42235 69.4719 8.73011 69.9265 9.15625C70.381 9.57765 70.7433 10.1364 71.0131 10.8324C71.283 11.5284 71.418 12.3854 71.418 13.4034V14.1136H63.0089V12.6648H69.7134C69.7134 12.0492 69.5903 11.5 69.3441 11.017C69.1026 10.5341 68.757 10.1529 68.3072 9.87358C67.8621 9.59422 67.3365 9.45455 66.7305 9.45455C66.0629 9.45455 65.4852 9.62026 64.9975 9.9517C64.5146 10.2784 64.1429 10.7045 63.8825 11.2301C63.622 11.7557 63.4918 12.3191 63.4918 12.9205V13.8864C63.4918 14.7102 63.6339 15.4086 63.918 15.9815C64.2068 16.5497 64.6069 16.983 65.1183 17.2812C65.6296 17.5748 66.2238 17.7216 66.9009 17.7216C67.3413 17.7216 67.739 17.66 68.0941 17.5369C68.454 17.4091 68.7641 17.2197 69.0245 16.9688C69.2849 16.7131 69.4862 16.3958 69.6282 16.017L71.2475 16.4716C71.0771 17.0208 70.7906 17.5038 70.3881 17.9205C69.9857 18.3324 69.4885 18.6544 68.8967 18.8864C68.3048 19.1136 67.6396 19.2273 66.9009 19.2273ZM78.712 8.09091V9.51136H73.0586V8.09091H78.712ZM74.7063 5.47727H76.3825V15.875C76.3825 16.3485 76.4511 16.7036 76.5884 16.9403C76.7305 17.1723 76.9104 17.3286 77.1282 17.4091C77.3507 17.4848 77.5851 17.5227 77.8313 17.5227C78.016 17.5227 78.1675 17.5133 78.2859 17.4943C78.4042 17.4706 78.4989 17.4517 78.57 17.4375L78.9109 18.9432C78.7972 18.9858 78.6386 19.0284 78.435 19.071C78.2314 19.1184 77.9734 19.142 77.6609 19.142C77.1874 19.142 76.7234 19.0402 76.2688 18.8366C75.819 18.633 75.445 18.3229 75.1467 17.9062C74.8531 17.4896 74.7063 16.964 74.7063 16.3295V5.47727ZM83.1438 12.4375V19H81.4677V4.45455H83.1438V9.79545H83.2859C83.5415 9.23201 83.9251 8.78456 84.4364 8.45312C84.9525 8.11695 85.6391 7.94886 86.4961 7.94886C87.2395 7.94886 87.8905 8.09801 88.4492 8.39631C89.0079 8.68987 89.4412 9.14205 89.7489 9.75284C90.0614 10.3589 90.2177 11.1307 90.2177 12.0682V19H88.5415V12.1818C88.5415 11.3153 88.3166 10.6454 87.8668 10.1719C87.4218 9.69366 86.8039 9.45455 86.0131 9.45455C85.4639 9.45455 84.9715 9.57055 84.5359 9.80256C84.105 10.0346 83.7641 10.3731 83.5131 10.8182C83.2669 11.2633 83.1438 11.803 83.1438 12.4375ZM97.7159 19.2273C96.7311 19.2273 95.867 18.9929 95.1236 18.5241C94.3849 18.0554 93.8073 17.3996 93.3906 16.5568C92.9787 15.714 92.7727 14.7292 92.7727 13.6023C92.7727 12.4659 92.9787 11.474 93.3906 10.6264C93.8073 9.77888 94.3849 9.12074 95.1236 8.65199C95.867 8.18324 96.7311 7.94886 97.7159 7.94886C98.7008 7.94886 99.5625 8.18324 100.301 8.65199C101.045 9.12074 101.622 9.77888 102.034 10.6264C102.451 11.474 102.659 12.4659 102.659 13.6023C102.659 14.7292 102.451 15.714 102.034 16.5568C101.622 17.3996 101.045 18.0554 100.301 18.5241C99.5625 18.9929 98.7008 19.2273 97.7159 19.2273ZM97.7159 17.7216C98.464 17.7216 99.0795 17.5298 99.5625 17.1463C100.045 16.7628 100.403 16.2585 100.635 15.6335C100.867 15.0085 100.983 14.3314 100.983 13.6023C100.983 12.8731 100.867 12.1937 100.635 11.5639C100.403 10.9342 100.045 10.4252 99.5625 10.0369C99.0795 9.64867 98.464 9.45455 97.7159 9.45455C96.9678 9.45455 96.3523 9.64867 95.8693 10.0369C95.3864 10.4252 95.0289 10.9342 94.7969 11.5639C94.5649 12.1937 94.4489 12.8731 94.4489 13.6023C94.4489 14.3314 94.5649 15.0085 94.7969 15.6335C95.0289 16.2585 95.3864 16.7628 95.8693 17.1463C96.3523 17.5298 96.9678 17.7216 97.7159 17.7216ZM109.337 19.2273C108.428 19.2273 107.625 18.9976 106.929 18.5384C106.233 18.0743 105.689 17.4209 105.296 16.5781C104.903 15.7306 104.706 14.7292 104.706 13.5739C104.706 12.428 104.903 11.4337 105.296 10.5909C105.689 9.74811 106.236 9.09706 106.936 8.63778C107.637 8.1785 108.447 7.94886 109.365 7.94886C110.076 7.94886 110.637 8.06723 111.049 8.30398C111.465 8.53598 111.783 8.80114 112 9.09943C112.223 9.39299 112.396 9.63447 112.519 9.82386H112.661V4.45455H114.337V19H112.718V17.3239H112.519C112.396 17.5227 112.221 17.7737 111.993 18.0767C111.766 18.375 111.442 18.6425 111.02 18.8793C110.599 19.1113 110.038 19.2273 109.337 19.2273ZM109.564 17.7216C110.237 17.7216 110.805 17.5464 111.269 17.196C111.733 16.8409 112.086 16.3509 112.327 15.7259C112.569 15.0961 112.689 14.3693 112.689 13.5455C112.689 12.7311 112.571 12.0185 112.334 11.4077C112.097 10.7921 111.747 10.3139 111.283 9.97301C110.819 9.62737 110.246 9.45455 109.564 9.45455C108.854 9.45455 108.262 9.63684 107.789 10.0014C107.32 10.3613 106.967 10.8513 106.73 11.4716C106.498 12.0871 106.382 12.7784 106.382 13.5455C106.382 14.322 106.501 15.0275 106.738 15.6619C106.979 16.2917 107.334 16.7936 107.803 17.1676C108.276 17.5369 108.864 17.7216 109.564 17.7216ZM125.367 10.5341L123.861 10.9602C123.766 10.7093 123.627 10.4654 123.442 10.2287C123.262 9.98722 123.016 9.78835 122.703 9.6321C122.391 9.47585 121.991 9.39773 121.503 9.39773C120.836 9.39773 120.279 9.55161 119.834 9.85938C119.394 10.1624 119.174 10.5483 119.174 11.017C119.174 11.4337 119.325 11.7628 119.628 12.0043C119.931 12.2457 120.405 12.447 121.049 12.608L122.668 13.0057C123.643 13.2424 124.37 13.6046 124.848 14.0923C125.327 14.5753 125.566 15.1979 125.566 15.9602C125.566 16.5852 125.386 17.1439 125.026 17.6364C124.671 18.1288 124.174 18.517 123.534 18.8011C122.895 19.0852 122.152 19.2273 121.304 19.2273C120.192 19.2273 119.271 18.9858 118.542 18.5028C117.812 18.0199 117.351 17.3144 117.157 16.3864L118.748 15.9886C118.899 16.5758 119.185 17.0161 119.607 17.3097C120.033 17.6032 120.589 17.75 121.276 17.75C122.057 17.75 122.677 17.5843 123.137 17.2528C123.601 16.9167 123.833 16.5142 123.833 16.0455C123.833 15.6667 123.7 15.3494 123.435 15.0938C123.17 14.8333 122.763 14.6392 122.213 14.5114L120.395 14.0852C119.396 13.8485 118.662 13.4815 118.194 12.9844C117.73 12.4825 117.498 11.8551 117.498 11.1023C117.498 10.4867 117.67 9.94223 118.016 9.46875C118.366 8.99527 118.842 8.62358 119.444 8.35369C120.05 8.08381 120.736 7.94886 121.503 7.94886C122.583 7.94886 123.43 8.18561 124.046 8.65909C124.666 9.13258 125.106 9.75758 125.367 10.5341Z" fill="black"/>
</svg>
