<svg width="37" height="33" viewBox="0 0 37 33" fill="none" xmlns="http://www.w3.org/2000/svg">
<path d="M0 16.5C0 7.3873 7.3873 0 16.5 0H37V33H16.5C7.3873 33 0 25.6127 0 16.5Z" fill="#703D73"/>
<g clip-path="url(#clip0_8_36)">
<path d="M18.75 10.5625V7H21.25V10.5625H18.75Z" fill="white"/>
<path d="M21.25 22.4375V26H18.75V22.4375H21.25Z" fill="white"/>
<path d="M23.75 16.5C23.75 18.4675 22.0711 20.0625 20 20.0625C17.9289 20.0625 16.25 18.4675 16.25 16.5C16.25 14.5325 17.9289 12.9375 20 12.9375C22.0711 12.9375 23.75 14.5325 23.75 16.5Z" fill="white"/>
<path d="M10 17.6875H13.75V15.3125H10V17.6875Z" fill="white"/>
<path d="M30 15.3125H26.25V17.6875H30V15.3125Z" fill="white"/>
<path d="M14.6967 13.1412L12.045 10.6222L13.8128 8.94278L16.4645 11.4618L14.6967 13.1412Z" fill="white"/>
<path d="M25.3033 19.8587L27.955 22.3778L26.1871 24.0573L23.5355 21.5381L25.3033 19.8587Z" fill="white"/>
<path d="M13.8128 24.0573L16.4645 21.5381L14.6967 19.8587L12.045 22.3779L13.8128 24.0573Z" fill="white"/>
<path d="M26.1871 8.94281L23.5355 11.4619L25.3033 13.1413L27.955 10.6222L26.1871 8.94281Z" fill="white"/>
</g>
<defs>
<clipPath id="clip0_8_36">
<rect width="20" height="19" fill="white" transform="translate(10 7)"/>
</clipPath>
</defs>
</svg>
