<svg width="37" height="33" viewBox="0 0 37 33" fill="none" xmlns="http://www.w3.org/2000/svg">
<path d="M0 16.5C0 7.3873 7.3873 0 16.5 0H37V33H16.5C7.3873 33 0 25.6127 0 16.5V16.5Z" fill="#F174E4"/>
<g clip-path="url(#clip0_8_22)">
<path d="M20.75 10.5625V7H23.25V10.5625H20.75Z" fill="black"/>
<path d="M23.25 22.4375V26H20.75V22.4375H23.25Z" fill="black"/>
<path d="M25.75 16.5C25.75 18.4675 24.0711 20.0625 22 20.0625C19.9289 20.0625 18.25 18.4675 18.25 16.5C18.25 14.5325 19.9289 12.9375 22 12.9375C24.0711 12.9375 25.75 14.5325 25.75 16.5Z" fill="black"/>
<path d="M12 17.6875H15.75V15.3125H12V17.6875Z" fill="black"/>
<path d="M32 15.3125H28.25V17.6875H32V15.3125Z" fill="black"/>
<path d="M16.6967 13.1412L14.045 10.6222L15.8128 8.94278L18.4645 11.4618L16.6967 13.1412Z" fill="black"/>
<path d="M27.3033 19.8587L29.955 22.3778L28.1871 24.0573L25.5355 21.5381L27.3033 19.8587Z" fill="black"/>
<path d="M15.8128 24.0573L18.4645 21.5381L16.6967 19.8587L14.045 22.3779L15.8128 24.0573Z" fill="black"/>
<path d="M28.1871 8.94281L25.5355 11.4619L27.3033 13.1413L29.955 10.6222L28.1871 8.94281Z" fill="black"/>
</g>
<defs>
<clipPath id="clip0_8_22">
<rect width="20" height="19" fill="white" transform="translate(12 7)"/>
</clipPath>
</defs>
</svg>
