<svg width="299" height="54" viewBox="0 0 299 54" fill="none" xmlns="http://www.w3.org/2000/svg">
<path d="M0 10C0 4.47715 4.47715 0 10 0H289C294.523 0 299 4.47715 299 10V44C299 49.5228 294.523 54 289 54H10C4.47715 54 0 49.5228 0 44V10Z" fill="#F174E4"/>
<path d="M27.0341 27.7273C27.0341 29.2614 26.7571 30.5871 26.2031 31.7045C25.6491 32.822 24.8892 33.6837 23.9233 34.2898C22.9574 34.8958 21.8542 35.1989 20.6136 35.1989C19.3731 35.1989 18.2699 34.8958 17.304 34.2898C16.3381 33.6837 15.5781 32.822 15.0241 31.7045C14.4702 30.5871 14.1932 29.2614 14.1932 27.7273C14.1932 26.1932 14.4702 24.8674 15.0241 23.75C15.5781 22.6326 16.3381 21.7708 17.304 21.1648C18.2699 20.5587 19.3731 20.2557 20.6136 20.2557C21.8542 20.2557 22.9574 20.5587 23.9233 21.1648C24.8892 21.7708 25.6491 22.6326 26.2031 23.75C26.7571 24.8674 27.0341 26.1932 27.0341 27.7273ZM25.3295 27.7273C25.3295 26.4678 25.1188 25.4048 24.6974 24.5384C24.2808 23.6719 23.715 23.0161 23 22.571C22.2898 22.1259 21.4943 21.9034 20.6136 21.9034C19.733 21.9034 18.9351 22.1259 18.2202 22.571C17.5099 23.0161 16.9441 23.6719 16.5227 24.5384C16.1061 25.4048 15.8977 26.4678 15.8977 27.7273C15.8977 28.9867 16.1061 30.0497 16.5227 30.9162C16.9441 31.7827 17.5099 32.4384 18.2202 32.8835C18.9351 33.3286 19.733 33.5511 20.6136 33.5511C21.4943 33.5511 22.2898 33.3286 23 32.8835C23.715 32.4384 24.2808 31.7827 24.6974 30.9162C25.1188 30.0497 25.3295 28.9867 25.3295 27.7273ZM29.9957 35V20.4545H31.6719V25.8239H31.8139C31.937 25.6345 32.1075 25.393 32.3253 25.0994C32.5478 24.8011 32.8651 24.536 33.277 24.304C33.6937 24.0672 34.2571 23.9489 34.9673 23.9489C35.8859 23.9489 36.6955 24.1785 37.3963 24.6378C38.0971 25.0971 38.6439 25.7481 39.0369 26.5909C39.4299 27.4337 39.6264 28.428 39.6264 29.5739C39.6264 30.7292 39.4299 31.7306 39.0369 32.5781C38.6439 33.4209 38.0994 34.0743 37.4034 34.5384C36.7074 34.9976 35.9048 35.2273 34.9957 35.2273C34.295 35.2273 33.7339 35.1113 33.3125 34.8793C32.8911 34.6425 32.5668 34.375 32.3395 34.0767C32.1122 33.7737 31.937 33.5227 31.8139 33.3239H31.6151V35H29.9957ZM31.6435 29.5455C31.6435 30.3693 31.7642 31.0961 32.0057 31.7259C32.2472 32.3509 32.5999 32.8409 33.0639 33.196C33.5279 33.5464 34.0961 33.7216 34.7685 33.7216C35.4692 33.7216 36.054 33.5369 36.5227 33.1676C36.9962 32.7936 37.3513 32.2917 37.5881 31.6619C37.8295 31.0275 37.9503 30.322 37.9503 29.5455C37.9503 28.7784 37.8319 28.0871 37.5952 27.4716C37.3632 26.8513 37.0104 26.3613 36.5369 26.0014C36.0682 25.6368 35.4787 25.4545 34.7685 25.4545C34.0866 25.4545 33.5137 25.6274 33.0497 25.973C32.5857 26.3139 32.2353 26.7921 31.9986 27.4077C31.7618 28.0185 31.6435 28.7311 31.6435 29.5455ZM42.1903 24.0909H43.8665V35.7955C43.8665 36.4678 43.7505 37.0502 43.5185 37.5426C43.2912 38.035 42.9455 38.4162 42.4815 38.6861C42.0223 38.956 41.4422 39.0909 40.7415 39.0909C40.6847 39.0909 40.6278 39.0909 40.571 39.0909C40.5142 39.0909 40.4574 39.0909 40.4006 39.0909V37.5284C40.4574 37.5284 40.5095 37.5284 40.5568 37.5284C40.6042 37.5284 40.6562 37.5284 40.7131 37.5284C41.2244 37.5284 41.5985 37.3769 41.8352 37.0739C42.072 36.7756 42.1903 36.3494 42.1903 35.7955V24.0909ZM43.0142 22.2727C42.6875 22.2727 42.4058 22.1615 42.169 21.9389C41.937 21.7164 41.821 21.4489 41.821 21.1364C41.821 20.8239 41.937 20.5563 42.169 20.3338C42.4058 20.1113 42.6875 20 43.0142 20C43.3409 20 43.6203 20.1113 43.8523 20.3338C44.089 20.5563 44.2074 20.8239 44.2074 21.1364C44.2074 21.4489 44.089 21.7164 43.8523 21.9389C43.6203 22.1615 43.3409 22.2727 43.0142 22.2727ZM51.5103 35.2273C50.4592 35.2273 49.5524 34.9953 48.7901 34.5312C48.0326 34.0625 47.4478 33.4091 47.0359 32.571C46.6287 31.7282 46.4251 30.7481 46.4251 29.6307C46.4251 28.5133 46.6287 27.5284 47.0359 26.6761C47.4478 25.8191 48.0207 25.1515 48.7546 24.6733C49.4933 24.1903 50.355 23.9489 51.3398 23.9489C51.908 23.9489 52.4691 24.0436 53.0231 24.233C53.5771 24.4223 54.0813 24.7301 54.5359 25.1562C54.9904 25.5777 55.3526 26.1364 55.6225 26.8324C55.8924 27.5284 56.0273 28.3854 56.0273 29.4034V30.1136H47.6183V28.6648H54.3228C54.3228 28.0492 54.1997 27.5 53.9535 27.017C53.712 26.5341 53.3664 26.1529 52.9165 25.8736C52.4715 25.5942 51.9459 25.4545 51.3398 25.4545C50.6722 25.4545 50.0946 25.6203 49.6069 25.9517C49.1239 26.2784 48.7522 26.7045 48.4918 27.2301C48.2314 27.7557 48.1012 28.3191 48.1012 28.9205V29.8864C48.1012 30.7102 48.2433 31.4086 48.5273 31.9815C48.8162 32.5497 49.2163 32.983 49.7276 33.2812C50.239 33.5748 50.8332 33.7216 51.5103 33.7216C51.9506 33.7216 52.3484 33.66 52.7035 33.5369C53.0633 33.4091 53.3735 33.2197 53.6339 32.9688C53.8943 32.7131 54.0955 32.3958 54.2376 32.017L55.8569 32.4716C55.6864 33.0208 55.4 33.5038 54.9975 33.9205C54.5951 34.3324 54.0979 34.6544 53.506 34.8864C52.9142 35.1136 52.2489 35.2273 51.5103 35.2273ZM63.0089 35.2273C61.9862 35.2273 61.1055 34.9858 60.3668 34.5028C59.6282 34.0199 59.06 33.3546 58.6623 32.5071C58.2646 31.6596 58.0657 30.6913 58.0657 29.6023C58.0657 28.4943 58.2693 27.5166 58.6765 26.669C59.0884 25.8168 59.6613 25.1515 60.3952 24.6733C61.1339 24.1903 61.9956 23.9489 62.9805 23.9489C63.7475 23.9489 64.4388 24.0909 65.0543 24.375C65.6699 24.6591 66.1741 25.0568 66.5671 25.5682C66.9601 26.0795 67.204 26.6761 67.2987 27.358H65.6225C65.4947 26.8608 65.2106 26.4205 64.7702 26.0369C64.3346 25.6487 63.7475 25.4545 63.0089 25.4545C62.3555 25.4545 61.7826 25.625 61.2901 25.9659C60.8024 26.3021 60.4213 26.7779 60.1467 27.3935C59.8768 28.0043 59.7418 28.7216 59.7418 29.5455C59.7418 30.3883 59.8744 31.1222 60.1396 31.7472C60.4094 32.3722 60.7882 32.8575 61.2759 33.2031C61.7683 33.5488 62.346 33.7216 63.0089 33.7216C63.4445 33.7216 63.8398 33.6458 64.195 33.4943C64.5501 33.3428 64.8507 33.125 65.0969 32.8409C65.3432 32.5568 65.5183 32.2159 65.6225 31.8182H67.2987C67.204 32.4621 66.9696 33.0421 66.5955 33.5582C66.2262 34.0696 65.7362 34.4768 65.1254 34.7798C64.5193 35.0781 63.8138 35.2273 63.0089 35.2273ZM74.4933 24.0909V25.5114H68.8398V24.0909H74.4933ZM70.4876 21.4773H72.1637V31.875C72.1637 32.3485 72.2324 32.7036 72.3697 32.9403C72.5117 33.1723 72.6916 33.3286 72.9094 33.4091C73.132 33.4848 73.3664 33.5227 73.6126 33.5227C73.7972 33.5227 73.9487 33.5133 74.0671 33.4943C74.1855 33.4706 74.2802 33.4517 74.3512 33.4375L74.6921 34.9432C74.5785 34.9858 74.4199 35.0284 74.2163 35.071C74.0127 35.1184 73.7546 35.142 73.4421 35.142C72.9686 35.142 72.5046 35.0402 72.0501 34.8366C71.6003 34.633 71.2262 34.3229 70.9279 33.9062C70.6344 33.4896 70.4876 32.964 70.4876 32.3295V21.4773ZM84.5465 26.5341L83.0408 26.9602C82.9461 26.7093 82.8065 26.4654 82.6218 26.2287C82.4419 25.9872 82.1957 25.7884 81.8832 25.6321C81.5707 25.4759 81.1706 25.3977 80.6829 25.3977C80.0153 25.3977 79.4589 25.5516 79.0138 25.8594C78.5735 26.1624 78.3533 26.5483 78.3533 27.017C78.3533 27.4337 78.5049 27.7628 78.8079 28.0043C79.1109 28.2457 79.5844 28.447 80.2283 28.608L81.8477 29.0057C82.823 29.2424 83.5498 29.6046 84.0281 30.0923C84.5063 30.5753 84.7454 31.1979 84.7454 31.9602C84.7454 32.5852 84.5655 33.1439 84.2056 33.6364C83.8505 34.1288 83.3533 34.517 82.7141 34.8011C82.0749 35.0852 81.3316 35.2273 80.484 35.2273C79.3713 35.2273 78.4504 34.9858 77.7212 34.5028C76.9921 34.0199 76.5304 33.3144 76.3363 32.3864L77.9272 31.9886C78.0787 32.5758 78.3652 33.0161 78.7866 33.3097C79.2127 33.6032 79.7691 33.75 80.4556 33.75C81.2369 33.75 81.8571 33.5843 82.3164 33.2528C82.7804 32.9167 83.0124 32.5142 83.0124 32.0455C83.0124 31.6667 82.8799 31.3494 82.6147 31.0938C82.3496 30.8333 81.9424 30.6392 81.3931 30.5114L79.5749 30.0852C78.5759 29.8485 77.842 29.4815 77.3732 28.9844C76.9092 28.4825 76.6772 27.8551 76.6772 27.1023C76.6772 26.4867 76.85 25.9422 77.1957 25.4688C77.546 24.9953 78.0219 24.6236 78.6232 24.3537C79.2293 24.0838 79.9158 23.9489 80.6829 23.9489C81.7624 23.9489 82.61 24.1856 83.2255 24.6591C83.8458 25.1326 84.2861 25.7576 84.5465 26.5341ZM95.3651 35L92.0412 24.0909H93.8026L96.1605 32.4432H96.2741L98.6037 24.0909H100.393L102.695 32.4148H102.808L105.166 24.0909H106.928L103.604 35H101.956L99.5696 26.6193H99.3991L97.0128 35H95.3651ZM109.143 35V24.0909H110.82V35H109.143ZM109.996 22.2727C109.669 22.2727 109.387 22.1615 109.151 21.9389C108.919 21.7164 108.803 21.4489 108.803 21.1364C108.803 20.8239 108.919 20.5563 109.151 20.3338C109.387 20.1113 109.669 20 109.996 20C110.322 20 110.602 20.1113 110.834 20.3338C111.071 20.5563 111.189 20.8239 111.189 21.1364C111.189 21.4489 111.071 21.7164 110.834 21.9389C110.602 22.1615 110.322 22.2727 109.996 22.2727ZM118.634 24.0909V25.5114H112.98V24.0909H118.634ZM114.628 21.4773H116.304V31.875C116.304 32.3485 116.373 32.7036 116.51 32.9403C116.652 33.1723 116.832 33.3286 117.05 33.4091C117.273 33.4848 117.507 33.5227 117.753 33.5227C117.938 33.5227 118.089 33.5133 118.208 33.4943C118.326 33.4706 118.421 33.4517 118.492 33.4375L118.833 34.9432C118.719 34.9858 118.56 35.0284 118.357 35.071C118.153 35.1184 117.895 35.142 117.583 35.142C117.109 35.142 116.645 35.0402 116.191 34.8366C115.741 34.633 115.367 34.3229 115.069 33.9062C114.775 33.4896 114.628 32.964 114.628 32.3295V21.4773ZM123.066 28.4375V35H121.39V20.4545H123.066V25.7955H123.208C123.463 25.232 123.847 24.7846 124.358 24.4531C124.874 24.117 125.561 23.9489 126.418 23.9489C127.161 23.9489 127.812 24.098 128.371 24.3963C128.93 24.6899 129.363 25.142 129.671 25.7528C129.983 26.3589 130.14 27.1307 130.14 28.0682V35H128.463V28.1818C128.463 27.3153 128.239 26.6454 127.789 26.1719C127.344 25.6937 126.726 25.4545 125.935 25.4545C125.386 25.4545 124.893 25.5705 124.458 25.8026C124.027 26.0346 123.686 26.3731 123.435 26.8182C123.189 27.2633 123.066 27.803 123.066 28.4375ZM144.626 20.4545H146.388V30.8523C146.388 31.7803 146.217 32.5687 145.876 33.2173C145.536 33.866 145.055 34.3584 144.435 34.6946C143.814 35.0308 143.083 35.1989 142.24 35.1989C141.445 35.1989 140.737 35.0545 140.116 34.7656C139.496 34.4721 139.009 34.0554 138.653 33.5156C138.298 32.9759 138.121 32.3343 138.121 31.5909H139.854C139.854 32.0028 139.955 32.3627 140.159 32.6705C140.367 32.9735 140.652 33.2102 141.011 33.3807C141.371 33.5511 141.781 33.6364 142.24 33.6364C142.747 33.6364 143.178 33.5298 143.533 33.3168C143.888 33.1037 144.158 32.7912 144.342 32.3793C144.532 31.9626 144.626 31.4536 144.626 30.8523V20.4545ZM152.901 35.2557C152.209 35.2557 151.582 35.1255 151.018 34.8651C150.455 34.5999 150.008 34.2188 149.676 33.7216C149.345 33.2197 149.179 32.6136 149.179 31.9034C149.179 31.2784 149.302 30.7718 149.548 30.3835C149.795 29.9905 150.124 29.6828 150.536 29.4602C150.947 29.2377 151.402 29.072 151.899 28.9631C152.401 28.8494 152.905 28.7595 153.412 28.6932C154.075 28.608 154.612 28.544 155.024 28.5014C155.441 28.4541 155.744 28.3759 155.933 28.267C156.127 28.1581 156.224 27.9687 156.224 27.6989V27.642C156.224 26.9413 156.033 26.3968 155.649 26.0085C155.27 25.6203 154.695 25.4261 153.923 25.4261C153.123 25.4261 152.496 25.6013 152.041 25.9517C151.587 26.3021 151.267 26.6761 151.082 27.0739L149.491 26.5057C149.776 25.8428 150.154 25.3267 150.628 24.9574C151.106 24.5833 151.627 24.3229 152.19 24.1761C152.759 24.0246 153.317 23.9489 153.866 23.9489C154.217 23.9489 154.619 23.9915 155.074 24.0767C155.533 24.1572 155.976 24.3253 156.402 24.581C156.833 24.8366 157.19 25.2225 157.474 25.7386C157.759 26.2547 157.901 26.946 157.901 27.8125V35H156.224V33.5227H156.139C156.026 33.7595 155.836 34.0128 155.571 34.2827C155.306 34.5526 154.953 34.7822 154.513 34.9716C154.072 35.161 153.535 35.2557 152.901 35.2557ZM153.156 33.75C153.819 33.75 154.378 33.6198 154.832 33.3594C155.292 33.099 155.637 32.7628 155.869 32.3509C156.106 31.9389 156.224 31.5057 156.224 31.0511V29.517C156.153 29.6023 155.997 29.6804 155.756 29.7514C155.519 29.8177 155.244 29.8769 154.932 29.929C154.624 29.9763 154.323 30.0189 154.03 30.0568C153.741 30.09 153.507 30.1184 153.327 30.142C152.891 30.1989 152.484 30.2912 152.105 30.419C151.731 30.5421 151.428 30.7292 151.196 30.9801C150.969 31.2263 150.855 31.5625 150.855 31.9886C150.855 32.571 151.071 33.0114 151.501 33.3097C151.937 33.6032 152.489 33.75 153.156 33.75ZM169.49 24.0909L165.456 35H163.751L159.717 24.0909H161.535L164.547 32.7841H164.66L167.672 24.0909H169.49ZM174.58 35.2557C173.889 35.2557 173.262 35.1255 172.698 34.8651C172.135 34.5999 171.687 34.2188 171.356 33.7216C171.024 33.2197 170.859 32.6136 170.859 31.9034C170.859 31.2784 170.982 30.7718 171.228 30.3835C171.474 29.9905 171.803 29.6828 172.215 29.4602C172.627 29.2377 173.082 29.072 173.579 28.9631C174.081 28.8494 174.585 28.7595 175.092 28.6932C175.754 28.608 176.292 28.544 176.704 28.5014C177.121 28.4541 177.424 28.3759 177.613 28.267C177.807 28.1581 177.904 27.9687 177.904 27.6989V27.642C177.904 26.9413 177.712 26.3968 177.329 26.0085C176.95 25.6203 176.375 25.4261 175.603 25.4261C174.803 25.4261 174.175 25.6013 173.721 25.9517C173.266 26.3021 172.947 26.6761 172.762 27.0739L171.171 26.5057C171.455 25.8428 171.834 25.3267 172.308 24.9574C172.786 24.5833 173.307 24.3229 173.87 24.1761C174.438 24.0246 174.997 23.9489 175.546 23.9489C175.897 23.9489 176.299 23.9915 176.754 24.0767C177.213 24.1572 177.656 24.3253 178.082 24.581C178.513 24.8366 178.87 25.2225 179.154 25.7386C179.438 26.2547 179.58 26.946 179.58 27.8125V35H177.904V33.5227H177.819C177.705 33.7595 177.516 34.0128 177.251 34.2827C176.986 34.5526 176.633 34.7822 176.192 34.9716C175.752 35.161 175.215 35.2557 174.58 35.2557ZM174.836 33.75C175.499 33.75 176.058 33.6198 176.512 33.3594C176.971 33.099 177.317 32.7628 177.549 32.3509C177.786 31.9389 177.904 31.5057 177.904 31.0511V29.517C177.833 29.6023 177.677 29.6804 177.435 29.7514C177.199 29.8177 176.924 29.8769 176.612 29.929C176.304 29.9763 176.003 30.0189 175.71 30.0568C175.421 30.09 175.186 30.1184 175.006 30.142C174.571 30.1989 174.164 30.2912 173.785 30.419C173.411 30.5421 173.108 30.7292 172.876 30.9801C172.648 31.2263 172.535 31.5625 172.535 31.9886C172.535 32.571 172.75 33.0114 173.181 33.3097C173.617 33.6032 174.168 33.75 174.836 33.75ZM190.821 24.0909C190.736 23.3712 190.391 22.8125 189.784 22.4148C189.178 22.017 188.435 21.8182 187.554 21.8182C186.91 21.8182 186.347 21.9223 185.864 22.1307C185.386 22.339 185.012 22.6255 184.742 22.9901C184.477 23.3546 184.344 23.7689 184.344 24.233C184.344 24.6212 184.436 24.955 184.621 25.2344C184.81 25.509 185.052 25.7386 185.346 25.9233C185.639 26.1032 185.947 26.2524 186.269 26.3707C186.591 26.4844 186.887 26.5767 187.157 26.6477L188.634 27.0455C189.013 27.1449 189.434 27.2822 189.898 27.4574C190.367 27.6326 190.814 27.8717 191.24 28.1747C191.671 28.473 192.026 28.8565 192.306 29.3253C192.585 29.794 192.725 30.3693 192.725 31.0511C192.725 31.8371 192.519 32.5473 192.107 33.1818C191.7 33.8163 191.103 34.3205 190.317 34.6946C189.536 35.0687 188.587 35.2557 187.469 35.2557C186.427 35.2557 185.525 35.0876 184.763 34.7514C184.006 34.4152 183.409 33.9465 182.973 33.3452C182.542 32.7438 182.299 32.0455 182.242 31.25H184.06C184.107 31.7992 184.292 32.2538 184.614 32.6136C184.941 32.9687 185.353 33.2339 185.85 33.4091C186.352 33.5795 186.891 33.6648 187.469 33.6648C188.141 33.6648 188.745 33.5559 189.28 33.3381C189.815 33.1155 190.239 32.8078 190.551 32.4148C190.864 32.017 191.02 31.553 191.02 31.0227C191.02 30.5398 190.885 30.1468 190.615 29.8438C190.346 29.5407 189.99 29.2945 189.55 29.1051C189.11 28.9157 188.634 28.75 188.123 28.608L186.333 28.0966C185.196 27.7699 184.297 27.3035 183.634 26.6974C182.971 26.0914 182.64 25.2983 182.64 24.3182C182.64 23.5038 182.86 22.7936 183.3 22.1875C183.745 21.5767 184.342 21.1032 185.09 20.767C185.843 20.4261 186.683 20.2557 187.611 20.2557C188.549 20.2557 189.382 20.4238 190.111 20.7599C190.84 21.0914 191.418 21.5459 191.844 22.1236C192.275 22.7012 192.502 23.357 192.526 24.0909H190.821ZM199.825 35.2273C198.803 35.2273 197.922 34.9858 197.183 34.5028C196.445 34.0199 195.876 33.3546 195.479 32.5071C195.081 31.6596 194.882 30.6913 194.882 29.6023C194.882 28.4943 195.086 27.5166 195.493 26.669C195.905 25.8168 196.478 25.1515 197.212 24.6733C197.95 24.1903 198.812 23.9489 199.797 23.9489C200.564 23.9489 201.255 24.0909 201.871 24.375C202.486 24.6591 202.991 25.0568 203.384 25.5682C203.777 26.0795 204.02 26.6761 204.115 27.358H202.439C202.311 26.8608 202.027 26.4205 201.587 26.0369C201.151 25.6487 200.564 25.4545 199.825 25.4545C199.172 25.4545 198.599 25.625 198.107 25.9659C197.619 26.3021 197.238 26.7779 196.963 27.3935C196.693 28.0043 196.558 28.7216 196.558 29.5455C196.558 30.3883 196.691 31.1222 196.956 31.7472C197.226 32.3722 197.605 32.8575 198.092 33.2031C198.585 33.5488 199.162 33.7216 199.825 33.7216C200.261 33.7216 200.656 33.6458 201.011 33.4943C201.366 33.3428 201.667 33.125 201.913 32.8409C202.16 32.5568 202.335 32.2159 202.439 31.8182H204.115C204.02 32.4621 203.786 33.0421 203.412 33.5582C203.043 34.0696 202.553 34.4768 201.942 34.7798C201.336 35.0781 200.63 35.2273 199.825 35.2273ZM206.565 35V24.0909H208.185V25.7386H208.298C208.497 25.1989 208.857 24.7609 209.378 24.4247C209.899 24.0885 210.486 23.9205 211.139 23.9205C211.262 23.9205 211.416 23.9228 211.601 23.9276C211.786 23.9323 211.925 23.9394 212.02 23.9489V25.6534C211.963 25.6392 211.833 25.6179 211.629 25.5895C211.43 25.5563 211.22 25.5398 210.997 25.5398C210.467 25.5398 209.993 25.651 209.577 25.8736C209.165 26.0914 208.838 26.3944 208.597 26.7827C208.36 27.1662 208.241 27.6042 208.241 28.0966V35H206.565ZM214.007 35V24.0909H215.683V35H214.007ZM214.859 22.2727C214.532 22.2727 214.251 22.1615 214.014 21.9389C213.782 21.7164 213.666 21.4489 213.666 21.1364C213.666 20.8239 213.782 20.5563 214.014 20.3338C214.251 20.1113 214.532 20 214.859 20C215.186 20 215.465 20.1113 215.697 20.3338C215.934 20.5563 216.052 20.8239 216.052 21.1364C216.052 21.4489 215.934 21.7164 215.697 21.9389C215.465 22.1615 215.186 22.2727 214.859 22.2727ZM218.753 39.0909V24.0909H220.372V25.8239H220.571C220.694 25.6345 220.865 25.393 221.082 25.0994C221.305 24.8011 221.622 24.536 222.034 24.304C222.451 24.0672 223.014 23.9489 223.724 23.9489C224.643 23.9489 225.453 24.1785 226.153 24.6378C226.854 25.0971 227.401 25.7481 227.794 26.5909C228.187 27.4337 228.384 28.428 228.384 29.5739C228.384 30.7292 228.187 31.7306 227.794 32.5781C227.401 33.4209 226.857 34.0743 226.161 34.5384C225.464 34.9976 224.662 35.2273 223.753 35.2273C223.052 35.2273 222.491 35.1113 222.07 34.8793C221.648 34.6425 221.324 34.375 221.097 34.0767C220.869 33.7737 220.694 33.5227 220.571 33.3239H220.429V39.0909H218.753ZM220.401 29.5455C220.401 30.3693 220.521 31.0961 220.763 31.7259C221.004 32.3509 221.357 32.8409 221.821 33.196C222.285 33.5464 222.853 33.7216 223.526 33.7216C224.226 33.7216 224.811 33.5369 225.28 33.1676C225.753 32.7936 226.108 32.2917 226.345 31.6619C226.587 31.0275 226.707 30.322 226.707 29.5455C226.707 28.7784 226.589 28.0871 226.352 27.4716C226.12 26.8513 225.768 26.3613 225.294 26.0014C224.825 25.6368 224.236 25.4545 223.526 25.4545C222.844 25.4545 222.271 25.6274 221.807 25.973C221.343 26.3139 220.992 26.7921 220.756 27.4077C220.519 28.0185 220.401 28.7311 220.401 29.5455ZM235.685 24.0909V25.5114H230.031V24.0909H235.685ZM231.679 21.4773H233.355V31.875C233.355 32.3485 233.424 32.7036 233.561 32.9403C233.703 33.1723 233.883 33.3286 234.101 33.4091C234.323 33.4848 234.558 33.5227 234.804 33.5227C234.989 33.5227 235.14 33.5133 235.259 33.4943C235.377 33.4706 235.472 33.4517 235.543 33.4375L235.884 34.9432C235.77 34.9858 235.611 35.0284 235.408 35.071C235.204 35.1184 234.946 35.142 234.634 35.142C234.16 35.142 233.696 35.0402 233.241 34.8366C232.792 34.633 232.418 34.3229 232.119 33.9062C231.826 33.4896 231.679 32.964 231.679 32.3295V21.4773Z" fill="black"/>
</svg>
