<svg width="299" height="54" viewBox="0 0 299 54" fill="none" xmlns="http://www.w3.org/2000/svg">
<path d="M0 10C0 4.47715 4.47715 0 10 0H289C294.523 0 299 4.47715 299 10V44C299 49.5228 294.523 54 289 54H10C4.47715 54 0 49.5228 0 44V10Z" fill="#601865"/>
<path d="M36.0341 27.7273C36.0341 29.2614 35.7571 30.5871 35.2031 31.7045C34.6491 32.822 33.8892 33.6837 32.9233 34.2898C31.9574 34.8958 30.8542 35.1989 29.6136 35.1989C28.3731 35.1989 27.2699 34.8958 26.304 34.2898C25.3381 33.6837 24.5781 32.822 24.0241 31.7045C23.4702 30.5871 23.1932 29.2614 23.1932 27.7273C23.1932 26.1932 23.4702 24.8674 24.0241 23.75C24.5781 22.6326 25.3381 21.7708 26.304 21.1648C27.2699 20.5587 28.3731 20.2557 29.6136 20.2557C30.8542 20.2557 31.9574 20.5587 32.9233 21.1648C33.8892 21.7708 34.6491 22.6326 35.2031 23.75C35.7571 24.8674 36.0341 26.1932 36.0341 27.7273ZM34.3295 27.7273C34.3295 26.4678 34.1188 25.4048 33.6974 24.5384C33.2808 23.6719 32.715 23.0161 32 22.571C31.2898 22.1259 30.4943 21.9034 29.6136 21.9034C28.733 21.9034 27.9351 22.1259 27.2202 22.571C26.5099 23.0161 25.9441 23.6719 25.5227 24.5384C25.1061 25.4048 24.8977 26.4678 24.8977 27.7273C24.8977 28.9867 25.1061 30.0497 25.5227 30.9162C25.9441 31.7827 26.5099 32.4384 27.2202 32.8835C27.9351 33.3286 28.733 33.5511 29.6136 33.5511C30.4943 33.5511 31.2898 33.3286 32 32.8835C32.715 32.4384 33.2808 31.7827 33.6974 30.9162C34.1188 30.0497 34.3295 28.9867 34.3295 27.7273ZM38.9957 35V20.4545H40.6719V25.8239H40.8139C40.937 25.6345 41.1075 25.393 41.3253 25.0994C41.5478 24.8011 41.8651 24.536 42.277 24.304C42.6937 24.0672 43.2571 23.9489 43.9673 23.9489C44.8859 23.9489 45.6955 24.1785 46.3963 24.6378C47.0971 25.0971 47.6439 25.7481 48.0369 26.5909C48.4299 27.4337 48.6264 28.428 48.6264 29.5739C48.6264 30.7292 48.4299 31.7306 48.0369 32.5781C47.6439 33.4209 47.0994 34.0743 46.4034 34.5384C45.7074 34.9976 44.9048 35.2273 43.9957 35.2273C43.295 35.2273 42.7339 35.1113 42.3125 34.8793C41.8911 34.6425 41.5668 34.375 41.3395 34.0767C41.1122 33.7737 40.937 33.5227 40.8139 33.3239H40.6151V35H38.9957ZM40.6435 29.5455C40.6435 30.3693 40.7642 31.0961 41.0057 31.7259C41.2472 32.3509 41.5999 32.8409 42.0639 33.196C42.5279 33.5464 43.0961 33.7216 43.7685 33.7216C44.4692 33.7216 45.054 33.5369 45.5227 33.1676C45.9962 32.7936 46.3513 32.2917 46.5881 31.6619C46.8295 31.0275 46.9503 30.322 46.9503 29.5455C46.9503 28.7784 46.8319 28.0871 46.5952 27.4716C46.3632 26.8513 46.0104 26.3613 45.5369 26.0014C45.0682 25.6368 44.4787 25.4545 43.7685 25.4545C43.0866 25.4545 42.5137 25.6274 42.0497 25.973C41.5857 26.3139 41.2353 26.7921 40.9986 27.4077C40.7618 28.0185 40.6435 28.7311 40.6435 29.5455ZM51.1903 24.0909H52.8665V35.7955C52.8665 36.4678 52.7505 37.0502 52.5185 37.5426C52.2912 38.035 51.9455 38.4162 51.4815 38.6861C51.0223 38.956 50.4422 39.0909 49.7415 39.0909C49.6847 39.0909 49.6278 39.0909 49.571 39.0909C49.5142 39.0909 49.4574 39.0909 49.4006 39.0909V37.5284C49.4574 37.5284 49.5095 37.5284 49.5568 37.5284C49.6042 37.5284 49.6562 37.5284 49.7131 37.5284C50.2244 37.5284 50.5985 37.3769 50.8352 37.0739C51.072 36.7756 51.1903 36.3494 51.1903 35.7955V24.0909ZM52.0142 22.2727C51.6875 22.2727 51.4058 22.1615 51.169 21.9389C50.937 21.7164 50.821 21.4489 50.821 21.1364C50.821 20.8239 50.937 20.5563 51.169 20.3338C51.4058 20.1113 51.6875 20 52.0142 20C52.3409 20 52.6203 20.1113 52.8523 20.3338C53.089 20.5563 53.2074 20.8239 53.2074 21.1364C53.2074 21.4489 53.089 21.7164 52.8523 21.9389C52.6203 22.1615 52.3409 22.2727 52.0142 22.2727ZM60.5103 35.2273C59.4592 35.2273 58.5524 34.9953 57.7901 34.5312C57.0326 34.0625 56.4478 33.4091 56.0359 32.571C55.6287 31.7282 55.4251 30.7481 55.4251 29.6307C55.4251 28.5133 55.6287 27.5284 56.0359 26.6761C56.4478 25.8191 57.0207 25.1515 57.7546 24.6733C58.4933 24.1903 59.355 23.9489 60.3398 23.9489C60.908 23.9489 61.4691 24.0436 62.0231 24.233C62.5771 24.4223 63.0813 24.7301 63.5359 25.1562C63.9904 25.5777 64.3526 26.1364 64.6225 26.8324C64.8924 27.5284 65.0273 28.3854 65.0273 29.4034V30.1136H56.6183V28.6648H63.3228C63.3228 28.0492 63.1997 27.5 62.9535 27.017C62.712 26.5341 62.3664 26.1529 61.9165 25.8736C61.4715 25.5942 60.9459 25.4545 60.3398 25.4545C59.6722 25.4545 59.0946 25.6203 58.6069 25.9517C58.1239 26.2784 57.7522 26.7045 57.4918 27.2301C57.2314 27.7557 57.1012 28.3191 57.1012 28.9205V29.8864C57.1012 30.7102 57.2433 31.4086 57.5273 31.9815C57.8162 32.5497 58.2163 32.983 58.7276 33.2812C59.239 33.5748 59.8332 33.7216 60.5103 33.7216C60.9506 33.7216 61.3484 33.66 61.7035 33.5369C62.0633 33.4091 62.3735 33.2197 62.6339 32.9688C62.8943 32.7131 63.0955 32.3958 63.2376 32.017L64.8569 32.4716C64.6864 33.0208 64.4 33.5038 63.9975 33.9205C63.5951 34.3324 63.0979 34.6544 62.506 34.8864C61.9142 35.1136 61.2489 35.2273 60.5103 35.2273ZM72.0089 35.2273C70.9862 35.2273 70.1055 34.9858 69.3668 34.5028C68.6282 34.0199 68.06 33.3546 67.6623 32.5071C67.2646 31.6596 67.0657 30.6913 67.0657 29.6023C67.0657 28.4943 67.2693 27.5166 67.6765 26.669C68.0884 25.8168 68.6613 25.1515 69.3952 24.6733C70.1339 24.1903 70.9956 23.9489 71.9805 23.9489C72.7475 23.9489 73.4388 24.0909 74.0543 24.375C74.6699 24.6591 75.1741 25.0568 75.5671 25.5682C75.9601 26.0795 76.204 26.6761 76.2987 27.358H74.6225C74.4947 26.8608 74.2106 26.4205 73.7702 26.0369C73.3346 25.6487 72.7475 25.4545 72.0089 25.4545C71.3555 25.4545 70.7826 25.625 70.2901 25.9659C69.8024 26.3021 69.4213 26.7779 69.1467 27.3935C68.8768 28.0043 68.7418 28.7216 68.7418 29.5455C68.7418 30.3883 68.8744 31.1222 69.1396 31.7472C69.4094 32.3722 69.7882 32.8575 70.2759 33.2031C70.7683 33.5488 71.346 33.7216 72.0089 33.7216C72.4445 33.7216 72.8398 33.6458 73.195 33.4943C73.5501 33.3428 73.8507 33.125 74.0969 32.8409C74.3432 32.5568 74.5183 32.2159 74.6225 31.8182H76.2987C76.204 32.4621 75.9696 33.0421 75.5955 33.5582C75.2262 34.0696 74.7362 34.4768 74.1254 34.7798C73.5193 35.0781 72.8138 35.2273 72.0089 35.2273ZM83.4933 24.0909V25.5114H77.8398V24.0909H83.4933ZM79.4876 21.4773H81.1637V31.875C81.1637 32.3485 81.2324 32.7036 81.3697 32.9403C81.5117 33.1723 81.6916 33.3286 81.9094 33.4091C82.132 33.4848 82.3664 33.5227 82.6126 33.5227C82.7972 33.5227 82.9487 33.5133 83.0671 33.4943C83.1855 33.4706 83.2802 33.4517 83.3512 33.4375L83.6921 34.9432C83.5785 34.9858 83.4199 35.0284 83.2163 35.071C83.0127 35.1184 82.7546 35.142 82.4421 35.142C81.9686 35.142 81.5046 35.0402 81.0501 34.8366C80.6003 34.633 80.2262 34.3229 79.9279 33.9062C79.6344 33.4896 79.4876 32.964 79.4876 32.3295V21.4773ZM93.5465 26.5341L92.0408 26.9602C91.9461 26.7093 91.8065 26.4654 91.6218 26.2287C91.4419 25.9872 91.1957 25.7884 90.8832 25.6321C90.5707 25.4759 90.1706 25.3977 89.6829 25.3977C89.0153 25.3977 88.4589 25.5516 88.0138 25.8594C87.5735 26.1624 87.3533 26.5483 87.3533 27.017C87.3533 27.4337 87.5049 27.7628 87.8079 28.0043C88.1109 28.2457 88.5844 28.447 89.2283 28.608L90.8477 29.0057C91.823 29.2424 92.5498 29.6046 93.0281 30.0923C93.5063 30.5753 93.7454 31.1979 93.7454 31.9602C93.7454 32.5852 93.5655 33.1439 93.2056 33.6364C92.8505 34.1288 92.3533 34.517 91.7141 34.8011C91.0749 35.0852 90.3316 35.2273 89.484 35.2273C88.3713 35.2273 87.4504 34.9858 86.7212 34.5028C85.9921 34.0199 85.5304 33.3144 85.3363 32.3864L86.9272 31.9886C87.0787 32.5758 87.3652 33.0161 87.7866 33.3097C88.2127 33.6032 88.7691 33.75 89.4556 33.75C90.2369 33.75 90.8571 33.5843 91.3164 33.2528C91.7804 32.9167 92.0124 32.5142 92.0124 32.0455C92.0124 31.6667 91.8799 31.3494 91.6147 31.0938C91.3496 30.8333 90.9424 30.6392 90.3931 30.5114L88.5749 30.0852C87.5759 29.8485 86.842 29.4815 86.3732 28.9844C85.9092 28.4825 85.6772 27.8551 85.6772 27.1023C85.6772 26.4867 85.85 25.9422 86.1957 25.4688C86.546 24.9953 87.0219 24.6236 87.6232 24.3537C88.2293 24.0838 88.9158 23.9489 89.6829 23.9489C90.7624 23.9489 91.61 24.1856 92.2255 24.6591C92.8458 25.1326 93.2861 25.7576 93.5465 26.5341ZM104.365 35L101.041 24.0909H102.803L105.161 32.4432H105.274L107.604 24.0909H109.393L111.695 32.4148H111.808L114.166 24.0909H115.928L112.604 35H110.956L108.57 26.6193H108.399L106.013 35H104.365ZM118.143 35V24.0909H119.82V35H118.143ZM118.996 22.2727C118.669 22.2727 118.387 22.1615 118.151 21.9389C117.919 21.7164 117.803 21.4489 117.803 21.1364C117.803 20.8239 117.919 20.5563 118.151 20.3338C118.387 20.1113 118.669 20 118.996 20C119.322 20 119.602 20.1113 119.834 20.3338C120.071 20.5563 120.189 20.8239 120.189 21.1364C120.189 21.4489 120.071 21.7164 119.834 21.9389C119.602 22.1615 119.322 22.2727 118.996 22.2727ZM127.634 24.0909V25.5114H121.98V24.0909H127.634ZM123.628 21.4773H125.304V31.875C125.304 32.3485 125.373 32.7036 125.51 32.9403C125.652 33.1723 125.832 33.3286 126.05 33.4091C126.273 33.4848 126.507 33.5227 126.753 33.5227C126.938 33.5227 127.089 33.5133 127.208 33.4943C127.326 33.4706 127.421 33.4517 127.492 33.4375L127.833 34.9432C127.719 34.9858 127.56 35.0284 127.357 35.071C127.153 35.1184 126.895 35.142 126.583 35.142C126.109 35.142 125.645 35.0402 125.191 34.8366C124.741 34.633 124.367 34.3229 124.069 33.9062C123.775 33.4896 123.628 32.964 123.628 32.3295V21.4773ZM132.066 28.4375V35H130.39V20.4545H132.066V25.7955H132.208C132.463 25.232 132.847 24.7846 133.358 24.4531C133.874 24.117 134.561 23.9489 135.418 23.9489C136.161 23.9489 136.812 24.098 137.371 24.3963C137.93 24.6899 138.363 25.142 138.671 25.7528C138.983 26.3589 139.14 27.1307 139.14 28.0682V35H137.463V28.1818C137.463 27.3153 137.239 26.6454 136.789 26.1719C136.344 25.6937 135.726 25.4545 134.935 25.4545C134.386 25.4545 133.893 25.5705 133.458 25.8026C133.027 26.0346 132.686 26.3731 132.435 26.8182C132.189 27.2633 132.066 27.803 132.066 28.4375ZM153.626 20.4545H155.388V30.8523C155.388 31.7803 155.217 32.5687 154.876 33.2173C154.536 33.866 154.055 34.3584 153.435 34.6946C152.814 35.0308 152.083 35.1989 151.24 35.1989C150.445 35.1989 149.737 35.0545 149.116 34.7656C148.496 34.4721 148.009 34.0554 147.653 33.5156C147.298 32.9759 147.121 32.3343 147.121 31.5909H148.854C148.854 32.0028 148.955 32.3627 149.159 32.6705C149.367 32.9735 149.652 33.2102 150.011 33.3807C150.371 33.5511 150.781 33.6364 151.24 33.6364C151.747 33.6364 152.178 33.5298 152.533 33.3168C152.888 33.1037 153.158 32.7912 153.342 32.3793C153.532 31.9626 153.626 31.4536 153.626 30.8523V20.4545ZM161.901 35.2557C161.209 35.2557 160.582 35.1255 160.018 34.8651C159.455 34.5999 159.008 34.2188 158.676 33.7216C158.345 33.2197 158.179 32.6136 158.179 31.9034C158.179 31.2784 158.302 30.7718 158.548 30.3835C158.795 29.9905 159.124 29.6828 159.536 29.4602C159.947 29.2377 160.402 29.072 160.899 28.9631C161.401 28.8494 161.905 28.7595 162.412 28.6932C163.075 28.608 163.612 28.544 164.024 28.5014C164.441 28.4541 164.744 28.3759 164.933 28.267C165.127 28.1581 165.224 27.9687 165.224 27.6989V27.642C165.224 26.9413 165.033 26.3968 164.649 26.0085C164.27 25.6203 163.695 25.4261 162.923 25.4261C162.123 25.4261 161.496 25.6013 161.041 25.9517C160.587 26.3021 160.267 26.6761 160.082 27.0739L158.491 26.5057C158.776 25.8428 159.154 25.3267 159.628 24.9574C160.106 24.5833 160.627 24.3229 161.19 24.1761C161.759 24.0246 162.317 23.9489 162.866 23.9489C163.217 23.9489 163.619 23.9915 164.074 24.0767C164.533 24.1572 164.976 24.3253 165.402 24.581C165.833 24.8366 166.19 25.2225 166.474 25.7386C166.759 26.2547 166.901 26.946 166.901 27.8125V35H165.224V33.5227H165.139C165.026 33.7595 164.836 34.0128 164.571 34.2827C164.306 34.5526 163.953 34.7822 163.513 34.9716C163.072 35.161 162.535 35.2557 161.901 35.2557ZM162.156 33.75C162.819 33.75 163.378 33.6198 163.832 33.3594C164.292 33.099 164.637 32.7628 164.869 32.3509C165.106 31.9389 165.224 31.5057 165.224 31.0511V29.517C165.153 29.6023 164.997 29.6804 164.756 29.7514C164.519 29.8177 164.244 29.8769 163.932 29.929C163.624 29.9763 163.323 30.0189 163.03 30.0568C162.741 30.09 162.507 30.1184 162.327 30.142C161.891 30.1989 161.484 30.2912 161.105 30.419C160.731 30.5421 160.428 30.7292 160.196 30.9801C159.969 31.2263 159.855 31.5625 159.855 31.9886C159.855 32.571 160.071 33.0114 160.501 33.3097C160.937 33.6032 161.489 33.75 162.156 33.75ZM178.49 24.0909L174.456 35H172.751L168.717 24.0909H170.535L173.547 32.7841H173.66L176.672 24.0909H178.49ZM183.58 35.2557C182.889 35.2557 182.262 35.1255 181.698 34.8651C181.135 34.5999 180.687 34.2188 180.356 33.7216C180.024 33.2197 179.859 32.6136 179.859 31.9034C179.859 31.2784 179.982 30.7718 180.228 30.3835C180.474 29.9905 180.803 29.6828 181.215 29.4602C181.627 29.2377 182.082 29.072 182.579 28.9631C183.081 28.8494 183.585 28.7595 184.092 28.6932C184.754 28.608 185.292 28.544 185.704 28.5014C186.121 28.4541 186.424 28.3759 186.613 28.267C186.807 28.1581 186.904 27.9687 186.904 27.6989V27.642C186.904 26.9413 186.712 26.3968 186.329 26.0085C185.95 25.6203 185.375 25.4261 184.603 25.4261C183.803 25.4261 183.175 25.6013 182.721 25.9517C182.266 26.3021 181.947 26.6761 181.762 27.0739L180.171 26.5057C180.455 25.8428 180.834 25.3267 181.308 24.9574C181.786 24.5833 182.307 24.3229 182.87 24.1761C183.438 24.0246 183.997 23.9489 184.546 23.9489C184.897 23.9489 185.299 23.9915 185.754 24.0767C186.213 24.1572 186.656 24.3253 187.082 24.581C187.513 24.8366 187.87 25.2225 188.154 25.7386C188.438 26.2547 188.58 26.946 188.58 27.8125V35H186.904V33.5227H186.819C186.705 33.7595 186.516 34.0128 186.251 34.2827C185.986 34.5526 185.633 34.7822 185.192 34.9716C184.752 35.161 184.215 35.2557 183.58 35.2557ZM183.836 33.75C184.499 33.75 185.058 33.6198 185.512 33.3594C185.971 33.099 186.317 32.7628 186.549 32.3509C186.786 31.9389 186.904 31.5057 186.904 31.0511V29.517C186.833 29.6023 186.677 29.6804 186.435 29.7514C186.199 29.8177 185.924 29.8769 185.612 29.929C185.304 29.9763 185.003 30.0189 184.71 30.0568C184.421 30.09 184.186 30.1184 184.006 30.142C183.571 30.1989 183.164 30.2912 182.785 30.419C182.411 30.5421 182.108 30.7292 181.876 30.9801C181.648 31.2263 181.535 31.5625 181.535 31.9886C181.535 32.571 181.75 33.0114 182.181 33.3097C182.617 33.6032 183.168 33.75 183.836 33.75ZM199.821 24.0909C199.736 23.3712 199.391 22.8125 198.784 22.4148C198.178 22.017 197.435 21.8182 196.554 21.8182C195.91 21.8182 195.347 21.9223 194.864 22.1307C194.386 22.339 194.012 22.6255 193.742 22.9901C193.477 23.3546 193.344 23.7689 193.344 24.233C193.344 24.6212 193.436 24.955 193.621 25.2344C193.81 25.509 194.052 25.7386 194.346 25.9233C194.639 26.1032 194.947 26.2524 195.269 26.3707C195.591 26.4844 195.887 26.5767 196.157 26.6477L197.634 27.0455C198.013 27.1449 198.434 27.2822 198.898 27.4574C199.367 27.6326 199.814 27.8717 200.24 28.1747C200.671 28.473 201.026 28.8565 201.306 29.3253C201.585 29.794 201.725 30.3693 201.725 31.0511C201.725 31.8371 201.519 32.5473 201.107 33.1818C200.7 33.8163 200.103 34.3205 199.317 34.6946C198.536 35.0687 197.587 35.2557 196.469 35.2557C195.427 35.2557 194.525 35.0876 193.763 34.7514C193.006 34.4152 192.409 33.9465 191.973 33.3452C191.542 32.7438 191.299 32.0455 191.242 31.25H193.06C193.107 31.7992 193.292 32.2538 193.614 32.6136C193.941 32.9687 194.353 33.2339 194.85 33.4091C195.352 33.5795 195.891 33.6648 196.469 33.6648C197.141 33.6648 197.745 33.5559 198.28 33.3381C198.815 33.1155 199.239 32.8078 199.551 32.4148C199.864 32.017 200.02 31.553 200.02 31.0227C200.02 30.5398 199.885 30.1468 199.615 29.8438C199.346 29.5407 198.99 29.2945 198.55 29.1051C198.11 28.9157 197.634 28.75 197.123 28.608L195.333 28.0966C194.196 27.7699 193.297 27.3035 192.634 26.6974C191.971 26.0914 191.64 25.2983 191.64 24.3182C191.64 23.5038 191.86 22.7936 192.3 22.1875C192.745 21.5767 193.342 21.1032 194.09 20.767C194.843 20.4261 195.683 20.2557 196.611 20.2557C197.549 20.2557 198.382 20.4238 199.111 20.7599C199.84 21.0914 200.418 21.5459 200.844 22.1236C201.275 22.7012 201.502 23.357 201.526 24.0909H199.821ZM208.825 35.2273C207.803 35.2273 206.922 34.9858 206.183 34.5028C205.445 34.0199 204.876 33.3546 204.479 32.5071C204.081 31.6596 203.882 30.6913 203.882 29.6023C203.882 28.4943 204.086 27.5166 204.493 26.669C204.905 25.8168 205.478 25.1515 206.212 24.6733C206.95 24.1903 207.812 23.9489 208.797 23.9489C209.564 23.9489 210.255 24.0909 210.871 24.375C211.486 24.6591 211.991 25.0568 212.384 25.5682C212.777 26.0795 213.02 26.6761 213.115 27.358H211.439C211.311 26.8608 211.027 26.4205 210.587 26.0369C210.151 25.6487 209.564 25.4545 208.825 25.4545C208.172 25.4545 207.599 25.625 207.107 25.9659C206.619 26.3021 206.238 26.7779 205.963 27.3935C205.693 28.0043 205.558 28.7216 205.558 29.5455C205.558 30.3883 205.691 31.1222 205.956 31.7472C206.226 32.3722 206.605 32.8575 207.092 33.2031C207.585 33.5488 208.162 33.7216 208.825 33.7216C209.261 33.7216 209.656 33.6458 210.011 33.4943C210.366 33.3428 210.667 33.125 210.913 32.8409C211.16 32.5568 211.335 32.2159 211.439 31.8182H213.115C213.02 32.4621 212.786 33.0421 212.412 33.5582C212.043 34.0696 211.553 34.4768 210.942 34.7798C210.336 35.0781 209.63 35.2273 208.825 35.2273ZM215.565 35V24.0909H217.185V25.7386H217.298C217.497 25.1989 217.857 24.7609 218.378 24.4247C218.899 24.0885 219.486 23.9205 220.139 23.9205C220.262 23.9205 220.416 23.9228 220.601 23.9276C220.786 23.9323 220.925 23.9394 221.02 23.9489V25.6534C220.963 25.6392 220.833 25.6179 220.629 25.5895C220.43 25.5563 220.22 25.5398 219.997 25.5398C219.467 25.5398 218.993 25.651 218.577 25.8736C218.165 26.0914 217.838 26.3944 217.597 26.7827C217.36 27.1662 217.241 27.6042 217.241 28.0966V35H215.565ZM223.007 35V24.0909H224.683V35H223.007ZM223.859 22.2727C223.532 22.2727 223.251 22.1615 223.014 21.9389C222.782 21.7164 222.666 21.4489 222.666 21.1364C222.666 20.8239 222.782 20.5563 223.014 20.3338C223.251 20.1113 223.532 20 223.859 20C224.186 20 224.465 20.1113 224.697 20.3338C224.934 20.5563 225.052 20.8239 225.052 21.1364C225.052 21.4489 224.934 21.7164 224.697 21.9389C224.465 22.1615 224.186 22.2727 223.859 22.2727ZM227.753 39.0909V24.0909H229.372V25.8239H229.571C229.694 25.6345 229.865 25.393 230.082 25.0994C230.305 24.8011 230.622 24.536 231.034 24.304C231.451 24.0672 232.014 23.9489 232.724 23.9489C233.643 23.9489 234.453 24.1785 235.153 24.6378C235.854 25.0971 236.401 25.7481 236.794 26.5909C237.187 27.4337 237.384 28.428 237.384 29.5739C237.384 30.7292 237.187 31.7306 236.794 32.5781C236.401 33.4209 235.857 34.0743 235.161 34.5384C234.464 34.9976 233.662 35.2273 232.753 35.2273C232.052 35.2273 231.491 35.1113 231.07 34.8793C230.648 34.6425 230.324 34.375 230.097 34.0767C229.869 33.7737 229.694 33.5227 229.571 33.3239H229.429V39.0909H227.753ZM229.401 29.5455C229.401 30.3693 229.521 31.0961 229.763 31.7259C230.004 32.3509 230.357 32.8409 230.821 33.196C231.285 33.5464 231.853 33.7216 232.526 33.7216C233.226 33.7216 233.811 33.5369 234.28 33.1676C234.753 32.7936 235.108 32.2917 235.345 31.6619C235.587 31.0275 235.707 30.322 235.707 29.5455C235.707 28.7784 235.589 28.0871 235.352 27.4716C235.12 26.8513 234.768 26.3613 234.294 26.0014C233.825 25.6368 233.236 25.4545 232.526 25.4545C231.844 25.4545 231.271 25.6274 230.807 25.973C230.343 26.3139 229.992 26.7921 229.756 27.4077C229.519 28.0185 229.401 28.7311 229.401 29.5455ZM244.685 24.0909V25.5114H239.031V24.0909H244.685ZM240.679 21.4773H242.355V31.875C242.355 32.3485 242.424 32.7036 242.561 32.9403C242.703 33.1723 242.883 33.3286 243.101 33.4091C243.323 33.4848 243.558 33.5227 243.804 33.5227C243.989 33.5227 244.14 33.5133 244.259 33.4943C244.377 33.4706 244.472 33.4517 244.543 33.4375L244.884 34.9432C244.77 34.9858 244.611 35.0284 244.408 35.071C244.204 35.1184 243.946 35.142 243.634 35.142C243.16 35.142 242.696 35.0402 242.241 34.8366C241.792 34.633 241.418 34.3229 241.119 33.9062C240.826 33.4896 240.679 32.964 240.679 32.3295V21.4773Z" fill="white"/>
</svg>
