<svg width="33" height="33" viewBox="0 0 33 33" fill="none" xmlns="http://www.w3.org/2000/svg">
<circle cx="16.5" cy="16.5" r="16.5" fill="#601865"/>
<path fill-rule="evenodd" clip-rule="evenodd" d="M10.5753 5.91667C10.5753 4.85813 9.73764 4 8.70434 4C7.67104 4 6.83337 4.85813 6.83337 5.91667V25.0833C6.83337 26.1419 7.67104 27 8.70434 27C9.73764 27 10.5753 26.1419 10.5753 25.0833V5.91667ZM25.5431 5.91667C25.5431 4.85813 24.7054 4 23.6721 4C22.6387 4 21.8011 4.85813 21.8011 5.91667V25.0833C21.8011 26.1419 22.6387 27 23.6721 27C24.7054 27 25.5431 26.1419 25.5431 25.0833V5.91667Z" fill="white"/>
</svg>
