<svg width="33" height="33" viewBox="0 0 33 33" fill="none" xmlns="http://www.w3.org/2000/svg">
<circle cx="16.5" cy="16.5" r="16.5" fill="#F174E4"/>
<path fill-rule="evenodd" clip-rule="evenodd" d="M12.3871 6.91667C12.3871 5.85813 11.8094 5 11.0968 5C10.3842 5 9.80646 5.85813 9.80646 6.91667V26.0833C9.80646 27.1419 10.3842 28 11.0968 28C11.8094 28 12.3871 27.1419 12.3871 26.0833V6.91667ZM22.7097 6.91667C22.7097 5.85813 22.132 5 21.4194 5C20.7067 5 20.129 5.85813 20.129 6.91667V26.0833C20.129 27.1419 20.7067 28 21.4194 28C22.132 28 22.7097 27.1419 22.7097 26.0833V6.91667Z" fill="black"/>
</svg>
