<svg width="219" height="58" viewBox="0 0 219 58" fill="none" xmlns="http://www.w3.org/2000/svg">
<rect width="219" height="58" rx="10" fill="#F174E4"/>
<path d="M59.5369 20.1818L66.0142 38.5483H66.2699L72.7472 20.1818H75.517L67.5057 42H64.7784L56.767 20.1818H59.5369ZM83.9119 42.3409C82.3352 42.3409 80.9751 41.9929 79.8317 41.2969C78.6953 40.5938 77.8182 39.6136 77.2003 38.3565C76.5895 37.0923 76.2841 35.6222 76.2841 33.946C76.2841 32.2699 76.5895 30.7926 77.2003 29.5142C77.8182 28.2287 78.6776 27.2273 79.7784 26.5099C80.8864 25.7855 82.179 25.4233 83.6562 25.4233C84.5085 25.4233 85.3501 25.5653 86.1811 25.8494C87.0121 26.1335 87.7685 26.5952 88.4503 27.2344C89.1321 27.8665 89.6754 28.7045 90.0803 29.7486C90.4851 30.7926 90.6875 32.0781 90.6875 33.6051V34.6705H78.0739V32.4972H88.1307C88.1307 31.5739 87.946 30.75 87.5767 30.0256C87.2145 29.3011 86.696 28.7294 86.0213 28.3104C85.3537 27.8913 84.5653 27.6818 83.6562 27.6818C82.6548 27.6818 81.7884 27.9304 81.0568 28.4276C80.3324 28.9176 79.7749 29.5568 79.3842 30.3452C78.9936 31.1335 78.7983 31.9787 78.7983 32.8807V34.3295C78.7983 35.5653 79.0114 36.6129 79.4375 37.4723C79.8707 38.3246 80.4709 38.9744 81.2379 39.4219C82.005 39.8622 82.8963 40.0824 83.9119 40.0824C84.5724 40.0824 85.169 39.9901 85.7017 39.8054C86.2415 39.6136 86.7067 39.3295 87.0973 38.9531C87.4879 38.5696 87.7898 38.0937 88.0028 37.5256L90.4318 38.2074C90.1761 39.0312 89.7464 39.7557 89.1428 40.3807C88.5391 40.9986 87.7933 41.4815 86.9055 41.8295C86.0178 42.1705 85.0199 42.3409 83.9119 42.3409ZM97.0263 32.1562V42H94.5121V20.1818H97.0263V28.1932H97.2393C97.6229 27.348 98.1982 26.6768 98.9652 26.1797C99.7393 25.6754 100.769 25.4233 102.055 25.4233C103.17 25.4233 104.146 25.647 104.984 26.0945C105.822 26.5348 106.472 27.2131 106.934 28.1293C107.403 29.0384 107.637 30.196 107.637 31.6023V42H105.123V31.7727C105.123 30.473 104.786 29.468 104.111 28.7578C103.443 28.0405 102.516 27.6818 101.33 27.6818C100.506 27.6818 99.7678 27.8558 99.1143 28.2038C98.468 28.5518 97.9567 29.0597 97.5803 29.7273C97.2109 30.3949 97.0263 31.2045 97.0263 32.1562ZM112.237 42V25.6364H114.751V42H112.237ZM113.515 22.9091C113.025 22.9091 112.602 22.7422 112.247 22.4084C111.899 22.0746 111.725 21.6733 111.725 21.2045C111.725 20.7358 111.899 20.3345 112.247 20.0007C112.602 19.6669 113.025 19.5 113.515 19.5C114.005 19.5 114.424 19.6669 114.772 20.0007C115.127 20.3345 115.305 20.7358 115.305 21.2045C115.305 21.6733 115.127 22.0746 114.772 22.4084C114.424 22.7422 114.005 22.9091 113.515 22.9091ZM126.004 42.3409C124.469 42.3409 123.148 41.9787 122.04 41.2543C120.933 40.5298 120.08 39.532 119.484 38.2607C118.887 36.9893 118.589 35.5369 118.589 33.9034C118.589 32.2415 118.894 30.7749 119.505 29.5036C120.123 28.2251 120.982 27.2273 122.083 26.5099C123.191 25.7855 124.484 25.4233 125.961 25.4233C127.112 25.4233 128.148 25.6364 129.072 26.0625C129.995 26.4886 130.751 27.0852 131.341 27.8523C131.93 28.6193 132.296 29.5142 132.438 30.5369H129.924C129.732 29.7912 129.306 29.1307 128.646 28.5554C127.992 27.973 127.112 27.6818 126.004 27.6818C125.023 27.6818 124.164 27.9375 123.425 28.4489C122.694 28.9531 122.122 29.6669 121.71 30.5902C121.305 31.5064 121.103 32.5824 121.103 33.8182C121.103 35.0824 121.302 36.1832 121.7 37.1207C122.104 38.0582 122.673 38.7862 123.404 39.3047C124.143 39.8232 125.009 40.0824 126.004 40.0824C126.657 40.0824 127.25 39.9688 127.783 39.7415C128.315 39.5142 128.766 39.1875 129.136 38.7614C129.505 38.3352 129.768 37.8239 129.924 37.2273H132.438C132.296 38.1932 131.945 39.0632 131.384 39.8374C130.83 40.6044 130.094 41.2152 129.178 41.6697C128.269 42.1172 127.211 42.3409 126.004 42.3409ZM138.628 20.1818V42H136.114V20.1818H138.628ZM150.094 42.3409C148.517 42.3409 147.157 41.9929 146.013 41.2969C144.877 40.5938 144 39.6136 143.382 38.3565C142.771 37.0923 142.466 35.6222 142.466 33.946C142.466 32.2699 142.771 30.7926 143.382 29.5142C144 28.2287 144.859 27.2273 145.96 26.5099C147.068 25.7855 148.361 25.4233 149.838 25.4233C150.69 25.4233 151.532 25.5653 152.363 25.8494C153.194 26.1335 153.95 26.5952 154.632 27.2344C155.314 27.8665 155.857 28.7045 156.262 29.7486C156.667 30.7926 156.869 32.0781 156.869 33.6051V34.6705H144.256V32.4972H154.312C154.312 31.5739 154.128 30.75 153.758 30.0256C153.396 29.3011 152.878 28.7294 152.203 28.3104C151.535 27.8913 150.747 27.6818 149.838 27.6818C148.836 27.6818 147.97 27.9304 147.238 28.4276C146.514 28.9176 145.956 29.5568 145.566 30.3452C145.175 31.1335 144.98 31.9787 144.98 32.8807V34.3295C144.98 35.5653 145.193 36.6129 145.619 37.4723C146.052 38.3246 146.653 38.9744 147.42 39.4219C148.187 39.8622 149.078 40.0824 150.094 40.0824C150.754 40.0824 151.351 39.9901 151.883 39.8054C152.423 39.6136 152.888 39.3295 153.279 38.9531C153.67 38.5696 153.971 38.0937 154.184 37.5256L156.613 38.2074C156.358 39.0312 155.928 39.7557 155.324 40.3807C154.721 40.9986 153.975 41.4815 153.087 41.8295C152.199 42.1705 151.202 42.3409 150.094 42.3409Z" fill="black"/>
</svg>
