<svg width="54" height="54" viewBox="0 0 54 54" fill="none" xmlns="http://www.w3.org/2000/svg">
<circle cx="27" cy="27" r="27" fill="#F4A6EB"/>
<path d="M34.0484 20.588H11.5963L17.9036 14.2834C18.1927 13.9791 18.1852 13.5 17.8884 13.2111C17.5917 12.9296 17.1276 12.9296 16.8309 13.2111L9.22254 20.8162C8.92582 21.1127 8.92582 21.5919 9.22254 21.8885L16.8309 29.4936C17.1352 29.7825 17.6145 29.775 17.9036 29.4784C18.1852 29.1818 18.1852 28.7178 17.9036 28.4212L11.5963 22.109H34.0484C38.697 22.109 42.4784 26.2005 42.4784 31.2351C42.4784 36.2696 38.6971 40.3612 34.0484 40.3612H27.2846C26.9042 40.3612 26.5618 40.6349 26.5085 41.0076C26.44 41.4791 26.8052 41.8822 27.2617 41.8822H34.0484C39.534 41.8822 44 37.1062 44 31.2351C44 25.3641 39.534 20.588 34.0484 20.588Z" fill="black"/>
</svg>
